<?xml version="1.0" encoding="UTF-8"?><svg id="Capa_1" xmlns="http://www.w3.org/2000/svg" width="18" height="19" viewBox="0 0 18 19"><defs><style>.cls-1{fill:#ff6e00;stroke-width:0px;}</style></defs><path class="cls-1" d="m12.45,8.84c-.69-.11-1.38-.18-2.07-.22.02-.64,0-1.28-.05-1.92-.07-.79-.33-1.99-1.27-2.15-1.11-.19-1.21,1.18-1.34,1.98-.11.71-.18,1.42-.22,2.13-1.02.08-2.03.24-3.03.47-.5.12-1.1.4-1.06.91.04.49.63.69,1.11.77.99.17,1.99.34,3,.47.08,1.09.23,2.17.48,3.24.12.5.4,1.1.91,1.06.49-.04.69-.63.77-1.11.17-.98.33-1.97.46-2.96.71.03,1.43.02,2.14-.04.79-.07,1.99-.33,2.15-1.27.19-1.11-1.18-1.21-1.98-1.34Z"/></svg>