<?xml version="1.0" encoding="UTF-8"?><svg id="Capa_1" xmlns="http://www.w3.org/2000/svg" width="268" height="250" viewBox="0 0 268 250"><defs><style>.cls-1{fill:#00d3aa;stroke-width:0px;}</style></defs><path class="cls-1" d="m147.62,77.41c.07,8.17.34,16.35-1.9,24.34-.25.9.02,1.94.06,2.91.69-.73,1.48-1.38,2.04-2.19,16.55-23.77,40.49-39.36,62.77-56.79.95-.74,3.36-1.25,3.78-.75,1.65,1.95-.01,3.86-.96,5.62-13.86,25.54-30.86,48.46-54.81,65.57-.58.42-1.15.86-1.73,1.29.71.14,1.46.52,2.11.38,29.11-6.06,57.64.64,86.31,3.99.95.11,1.81.99,2.72,1.51-.85,1.08-1.5,2.82-2.58,3.13-25.79,7.62-51.91,12.47-78.98,9.03-3.46-.44-6.95-.64-10.42-.95,2.5,2.18,4.86,4.55,7.53,6.51,21.49,15.75,35.18,38.37,51.55,58.63.67.83.5,2.36.72,3.56-1.34-.05-2.9.34-3.97-.23-25.24-13.31-48.14-29.53-65.2-52.94-1.13-1.55-2.52-2.92-3.79-4.37.29,1.85.59,3.7.86,5.55,3.5,23.86.12,47.4-3.34,70.94-.51,3.45-1.07,6.89-1.49,10.34-.21,1.68.47,4.12-1.95,4.18-1.69.04-2.48-1.83-3.06-3.74-8.45-27.86-12.77-56.06-7.74-85.13.17-1.01-.18-2.11-.29-3.17-.55.67-1.16,1.31-1.65,2.02-16.63,23.91-40.72,39.6-63.12,57.13-.89.69-3.41.93-3.73.44-1.3-2.03.29-3.84,1.26-5.63,13.77-25.62,30.94-48.41,54.82-65.57.56-.4,1.05-.89,1.57-1.34-.79-.06-1.61-.3-2.35-.15-29.11,6.12-57.63-.74-86.3-4-.89-.1-1.67-1.14-2.5-1.73.94-1.02,1.7-2.63,2.83-2.96,27.99-8.16,56.28-13.25,85.53-8.01,1.21.22,2.51-.07,3.77-.13-.76-.67-1.46-1.43-2.29-2.01-23.76-16.55-39.31-40.54-56.75-62.81-.72-.92-1.09-3.38-.59-3.75,2-1.5,3.85.16,5.62,1.11,25.58,13.81,48.4,30.93,65.54,54.84.41.57.88,1.1,1.32,1.65.1-.75.41-1.54.26-2.23-6.09-29.13.7-57.66,3.99-86.35.11-.92,1.13-2.51,1.61-2.47,1.92.16,2.71,1.6,3.27,3.5,5.94,20,10.29,40.24,9.68,61.27Z"/></svg>