<?xml version="1.0" encoding="UTF-8"?><svg id="Capa_1" xmlns="http://www.w3.org/2000/svg" width="492" height="515" viewBox="0 0 492 515"><defs><style>.cls-1{fill:#f5ece3;}.cls-1,.cls-2,.cls-3,.cls-4,.cls-5,.cls-6,.cls-7,.cls-8,.cls-9,.cls-10,.cls-11,.cls-12,.cls-13,.cls-14{stroke-width:0px;}.cls-2{fill:#ffa800;}.cls-3{fill:#124299;}.cls-3,.cls-9,.cls-10,.cls-12,.cls-13{fill-rule:evenodd;}.cls-4,.cls-15{fill:none;}.cls-5{fill:#001b34;}.cls-6{fill:#00d3aa;}.cls-7{fill:#4e5ff9;}.cls-8{fill:#ff6e00;}.cls-9{fill:#22b29a;}.cls-10{fill:#545ff5;}.cls-11{fill:#ffc1b4;}.cls-12{fill:#ffa4bc;}.cls-15{stroke:#545ff5;stroke-miterlimit:10;}.cls-13{fill:#ffa825;}.cls-14{fill:#358288;}</style></defs><path class="cls-7" d="m86.16,480.53c-2.05-.7-3.89-1.56-5.72-2.7-1.26-.79-3.24.14-4.53,2.14-4.66,7.19-9.32,14.38-13.95,21.61-8.34-4.52-16.78-8.87-25.37-13-2.3-1.1-4.6-.75-5.12.78-.7,2.05-1.55,3.89-2.7,5.72-.79,1.26.14,3.23,2.13,4.52,7.62,4.94,15.25,9.87,22.9,14.77,2.17,1.39,4.34,2.78,6.52,4.16,3.8,2.42,8.87,1.14,11.04-2.81,1.26-2.28,2.5-4.57,3.73-6.87,4.1-7.63,8.06-15.35,11.83-23.19,1.11-2.3.75-4.61-.78-5.12Z"/><path class="cls-8" d="m452.08,434.46c-.95,1.92-1.07,4.14-.99,6.28.3,7.84,3.17,15.56,8.06,21.69,1.74,2.18,3.83,4.23,6.47,5.12,2.64.89,5.94.32,7.57-1.94,1.1-1.52,1.29-3.48,1.93-5.24.64-1.76,2.14-3.53,4-3.32,1.53.17,2.58,1.6,3.3,2.96,2,3.75,3.09,7.97,5.45,11.51,2.36,3.53,6.64,6.36,10.72,5.17,3.92-1.14,6-5.37,7.07-9.31,3.54-13.12.72-27.6-6.65-39.01-1.67-2.59-3.63-5.09-6.25-6.72-2.62-1.63-6.02-2.26-8.83-1-3.5,1.57-5.24,5.58-5.83,9.37-.59,3.79-.36,7.72-1.42,11.41-.82,2.86-3.24,5.9-6.15,5.28-2.21-.47-3.48-2.85-3.9-5.07-.43-2.22-.33-4.58-1.25-6.65-2.35-5.33-10.65-5.89-13.31-.53Z"/><path class="cls-2" d="m32.21,460.55c-1.41,0-2.64-.33-3.56-.99-.95-.69-2.06-2.08-1.93-4.84.19-3.91,1.6-6.64,3.96-7.69.35-.16.71-.27,1.05-.37.41-.13.79-.25,1.11-.43.92-.53,1.37-1.65,1.86-2.84.47-1.14.95-2.32,1.9-3.22.95-.9,2.26-1.33,3.7-1.24,1.69.11,3.31.94,4.34,2.22,1.61,1.99,2.1,4.93,1.35,8.06h0c-1.11,4.62-4.65,8.6-9.23,10.4-1.61.63-3.16.94-4.53.94Zm7.69-19.9c-.84,0-1.59.27-2.12.78-.68.64-1.07,1.6-1.48,2.61-.57,1.4-1.16,2.85-2.59,3.68-.48.28-.98.44-1.46.59-.31.1-.6.19-.86.3-2.34,1.04-2.84,4.33-2.93,6.2-.08,1.59.33,2.72,1.21,3.35,1.57,1.13,4.37.66,6.45-.16,4.07-1.59,7.2-5.11,8.18-9.19h0c.63-2.6.26-5-1.01-6.57-.72-.89-1.91-1.5-3.11-1.58-.09,0-.18,0-.27,0Z"/><path class="cls-2" d="m29.13,465.07c-1.2,0-2.4-.12-3.57-.39-2.27-.53-4.17-2.04-5.36-4.25-1.5-2.8-1.73-6.4-.61-9.39,1.35-3.6,4.54-6.68,8.75-8.47.35-.15.7-.29,1.06-.43,1.26-.5,2.46-.97,3.36-1.8.54-.5.98-1.13,1.44-1.79.19-.27.38-.55.57-.81,1.87-2.53,5.25-5.05,9.12-4.55,2.56.33,4.94,2.01,6.37,4.48,1.2,2.08,1.74,4.67,1.56,7.51-.33,5.02-2.83,9.96-6.88,13.56-3.73,3.32-9.87,6.34-15.82,6.34Zm13.77-30.22c-2.81,0-5.28,1.96-6.73,3.91-.19.25-.36.51-.54.77-.49.72-1,1.45-1.69,2.08-1.14,1.05-2.54,1.6-3.89,2.13-.34.13-.68.27-1.02.41-3.78,1.6-6.62,4.33-7.81,7.49-.94,2.5-.74,5.63.51,7.97.67,1.25,1.95,2.85,4.22,3.38,6.33,1.47,13.69-1.85,17.84-5.55h0c3.71-3.3,6-7.81,6.3-12.38.11-1.74-.03-4.29-1.33-6.53-1.15-1.98-3.1-3.37-5.1-3.63-.26-.03-.52-.05-.77-.05Z"/><path class="cls-2" d="m24.7,471.49c-4.72,0-8.15-1.38-10.23-4.11-3.67-4.82-3.37-11.72-1.44-16.41,2.61-6.35,8-10.51,12.06-12.89.96-.56,1.95-1.09,2.91-1.6,1.28-.68,2.6-1.39,3.84-2.17,1.02-.65,2.06-1.39,3.06-2.1,3.46-2.47,7.03-5.02,11.38-4.94,3.22.06,6.48,1.72,8.74,4.44,1.96,2.38,3.2,5.51,3.56,9.06.76,7.33-2.33,15.08-8.26,20.73-5.1,4.85-12.15,8.15-20.38,9.52h0c-1.89.32-3.64.47-5.24.47Zm21.39-42.49c-3.7,0-6.85,2.25-10.19,4.62-1.02.73-2.08,1.48-3.14,2.15-1.29.81-2.64,1.54-3.95,2.23-.94.5-1.92,1.02-2.85,1.57-3.83,2.24-8.9,6.15-11.33,12.05-1.74,4.24-2.04,10.42,1.21,14.7,2.37,3.11,7.01,4.12,13.81,2.98h0c7.89-1.32,14.62-4.46,19.47-9.07,5.55-5.28,8.44-12.49,7.73-19.29-.33-3.21-1.43-6.02-3.18-8.13-1.93-2.34-4.71-3.77-7.43-3.82-.05,0-.11,0-.16,0Z"/><path class="cls-2" d="m24.61,478.93c-1.25,0-2.45-.08-3.6-.25h0c-4.67-.68-8.52-2.97-11.15-6.63-3.37-4.7-4.58-11.34-3.31-18.21,1.16-6.3,4.7-12.2,9.71-16.19,2.49-1.99,5.32-3.51,8.05-4.98.87-.47,1.73-.93,2.59-1.41,1.14-.64,2.28-1.32,3.39-1.98,3-1.78,6.1-3.62,9.44-4.9,5.4-2.07,10.63-2.18,14.73-.32,3.67,1.67,6.74,5.03,8.63,9.49,3.75,8.81,2.07,20.01-4.28,28.52-5.49,7.35-14.31,12.88-24.84,15.56-3.43.87-6.53,1.31-9.36,1.31Zm-3.35-1.96c3.55.51,7.57.18,12.29-1.02,10.15-2.58,18.63-7.88,23.88-14.91,5.99-8.03,7.59-18.56,4.08-26.81-1.72-4.05-4.48-7.1-7.76-8.59-3.68-1.67-8.44-1.54-13.4.36-3.2,1.23-6.24,3.03-9.17,4.77-1.12.66-2.27,1.35-3.43,2-.87.49-1.74.96-2.62,1.43-2.66,1.44-5.42,2.92-7.79,4.81-4.69,3.73-8,9.26-9.09,15.15-1.17,6.32-.04,12.63,3.01,16.88,2.38,3.32,5.74,5.31,9.99,5.93h0Z"/><path class="cls-14" d="m99.08,403.78c9.03-4.2,17.14-10.7,23.36-18.49.78-.97,2.22-1.05,3.1-.17,1.4,1.41,2.62,3,3.62,4.71.41.72.37,1.62-.13,2.28-6.76,8.94-16.28,15.75-26.82,19.58-1.09.4-2.3-.18-2.68-1.27-.46-1.32-.96-2.69-1.49-3.98-.42-1.02.04-2.2,1.04-2.66Z"/><path class="cls-14" d="m93.89,392.64c7.96-3.7,15.1-9.42,20.58-16.28.68-.86,1.96-.93,2.73-.15,1.24,1.24,2.31,2.64,3.18,4.15.37.63.33,1.43-.11,2.01-5.95,7.88-14.34,13.87-23.63,17.25-.96.35-2.03-.15-2.36-1.12-.4-1.17-.84-2.37-1.32-3.5-.37-.9.03-1.93.92-2.35Z"/><path class="cls-14" d="m90.55,383.09c6.21-2.89,11.77-7.35,16.05-12.7.53-.67,1.53-.72,2.13-.12.96.97,1.8,2.06,2.48,3.24.28.49.26,1.11-.09,1.57-4.64,6.14-11.18,10.82-18.43,13.45-.75.27-1.58-.12-1.84-.88-.31-.91-.66-1.85-1.03-2.73-.29-.7.03-1.51.72-1.83Z"/><path class="cls-8" d="m112.82,429.22c-.24,1.19-.14,2.29.36,3.09.26.42.64.83,1.07,1.2.43.37.9.7,1.41.97,1.01.55,2.1.87,3.28.97,1.2.13,2.61.06,4.09.67.73.3,1.42.83,1.91,1.46.49.63.83,1.33,1.03,2.04.42,1.45.3,2.87.15,4.16-.16,1.28-.3,2.54-.33,3.8-.02,1.26.06,2.52.3,3.74.24,1.22.64,2.38,1.22,3.42.58,1.02,1.33,1.92,2.17,2.59.83.67,1.77,1.1,2.61,1.27.84.17,1.57.09,2.37-.16.79-.25,1.59-.71,2.29-1.31.35-.3.69-.63.98-.99.31-.38.59-.8.85-1.26,1.06-1.82,1.6-4.26,1.49-6.71-.05-1.22-.27-2.44-.65-3.62-.37-1.18-.89-2.3-1.56-3.33-.67-1.03-1.48-1.96-2.4-2.74-.47-.39-.94-.73-1.49-1.13-.53-.4-1.12-.85-1.59-1.53-.23-.34-.43-.74-.54-1.17-.11-.43-.12-.87-.09-1.26.07-.8.25-1.41.4-2.03.3-1.25.63-2.49.97-3.73.34-1.24.67-2.44.72-3.6.04-1.17-.25-2.23-.94-3.11-.67-.89-1.64-1.6-2.68-2.16-1.05-.56-2.16-.94-3.27-1.17-1.12-.21-2.23-.26-3.28-.13-.53.06-1.04.17-1.54.31-.49.14-1.01.33-1.37.52-.81.43-1.65,1.11-2.45,1.91-.81.79-1.59,1.68-2.34,2.62-.74.95-1.41,1.91-1.95,2.99-.54,1.07-.93,2.21-1.17,3.4Zm-2-.27c.21-2.71.95-5.47,2.24-7.94.31-.62.66-1.22,1.05-1.8.38-.59.8-1.16,1.28-1.7.94-1.08,2.08-2.1,3.58-2.82,2.99-1.33,6.19-1.08,8.86.01,1.34.55,2.57,1.27,3.65,2.14.56.42,1.08.88,1.57,1.38.49.51.96,1.05,1.34,1.68.38.62.69,1.31.87,2.03.18.72.24,1.45.21,2.15-.04,1.41-.34,2.72-.6,3.98-.26,1.26-.53,2.51-.84,3.76-.14.63-.33,1.25-.38,1.74-.04.5.01.83.26,1.24.48.81,1.63,1.52,2.61,2.5.97.95,1.81,2.02,2.53,3.15,1.46,2.26,2.4,4.79,3.05,7.42.32,1.32.57,2.67.65,4.09.09,1.42,0,2.9-.41,4.39-.2.74-.49,1.48-.87,2.18-.4.72-.89,1.39-1.46,1.99-1.14,1.18-2.59,2.12-4.28,2.57-.84.22-1.74.32-2.63.25-.9-.06-1.79-.3-2.57-.65-1.58-.72-2.76-1.89-3.62-3.13-.84-1.28-1.41-2.62-1.76-3.99-.36-1.36-.54-2.71-.63-4.05-.08-1.33-.11-2.64-.1-3.95-.01-1.3,0-2.61,0-3.89,0-1.26-.04-2.47-.37-3.49-.17-.51-.4-.99-.71-1.37-.31-.38-.67-.65-1.13-.84-.91-.38-2.15-.4-3.49-.51-1.39-.11-2.81-.54-4.05-1.22-.63-.34-1.21-.76-1.75-1.22-.53-.47-1.05-1.01-1.46-1.68-.42-.68-.65-1.5-.7-2.24-.06-.75-.01-1.47.04-2.15Z"/><path class="cls-5" d="m102.99,479.45c.53-2.49,2-4.7,3.8-6.51,2.49-2.51,5.7-4.38,9.19-4.93,3.49-.55,7.26.31,9.95,2.61,1.96,1.68,3.25,4,4.43,6.3.84,1.64,1.64,3.33,1.97,5.14.28,1.51.21,3.09-.2,4.58-.68,2.47-2.26,4.63-4.17,6.34-3,2.7-7.09,4.46-11.07,3.78-2.03-.34-3.93-1.3-5.53-2.58-.82-.65-1.57-1.4-2.09-2.31-.63-1.11-.86-2.41-.94-3.69-.15-2.24.12-4.54,1.06-6.57.94-2.04,2.59-3.79,4.68-4.6,2.09-.81,4.62-.58,6.38.82,1.76,1.39,2.56,3.97,1.67,6.03-.89,2.06-3.53,3.24-5.58,2.34-.69-.3-1.32-.82-2.08-.83-1.13-.02-2,1.22-1.88,2.35.12,1.13.97,2.06,1.94,2.64,2.02,1.19,4.67,1.11,6.76.03,2.09-1.08,3.64-3.04,4.51-5.23.8-2.04,1.04-4.32.53-6.46-1.12-4.65-6.19-7.83-10.85-7.05-3.44.58-6.1,3.09-7.36,6.27-.55,1.4-.9,2.87-1.18,4.35-.21,1.09-.36,2.6-1.55,3.12-2.77,1.22-2.67-4.62-2.38-5.95Z"/><path class="cls-6" d="m107.31,548.1c-.63,0-1.27-.03-1.91-.09-6.79-.65-13.25-4.83-16.87-10.89-1.69-2.82-2.69-5.9-2.9-8.89-.38-5.32,1.77-11.14,5.89-15.95,2.95-3.45,6.49-5.96,10.21-7.26,3.13-1.09,6.51-1.39,9.79-.85,3.14.52,5.79,1.77,7.66,3.62,1.61,1.6,2.81,3.75,3.77,6.77,2.07,6.53,1.83,13.04-.68,18.32-2.86,6.03-8.85,10.08-14.9,10.08-.02,0-.04,0-.06,0-2.59-.01-5.39-.74-8.32-2.15-2.92-1.42-6.81-3.97-8.77-8.11-1.41-2.98-1.71-6.6-.85-10.19.74-3.05,2.3-6.09,4.64-9.05,1.62-2.04,3.24-3.58,4.97-4.71,3.87-2.52,8.82-3.23,13.24-1.89,2.21.67,4.04,1.79,5.28,3.24,1.36,1.59,2.07,3.59,2.62,5.51.66,2.28,1.29,4.99.98,7.76-.3,2.65-1.45,5.35-3.52,8.26-1.79,2.52-3.65,4.31-5.67,5.48-4.92,2.84-11.54,2.06-15.75-1.85-4.09-3.8-5.49-10.34-3.32-15.57,2.13-5.15,7.58-8.83,13.23-8.95,2.02-.04,3.9.35,5.45,1.13,3.47,1.75,5.72,5.73,5.61,9.91-.1,3.72-2.05,7.54-5.21,10.21-1.39,1.18-2.75,1.93-4.13,2.28-2.41.61-5.16.01-7.34-1.6-1.97-1.46-3.39-3.68-3.89-6.08-.34-1.63-.29-3.4.14-5.27.54-2.37,1.62-4.18,3.11-5.23,2.31-1.63,5.37-1.36,7.78-.95,1.23.21,2.65.51,3.86,1.28,2.09,1.34,3.2,4.03,2.69,6.54-.48,2.39-2.34,4.45-4.75,5.25-2.51.84-5.4.14-7.03-1.7-1.8-2.03-1.82-5.32-.03-7.18.86-.89,2.1-1.47,3.5-1.65,1.51-.18,2.9.18,3.83,1,.86.76,1.28,1.97,1.12,3.23-.16,1.26-.86,2.33-1.88,2.85-.98.5-2.13.5-2.99-.01-1.03-.61-1.49-1.9-1.07-2.94.24-.58.77-1.03,1.41-1.2.6-.16,1.21-.05,1.66.3.31.24.37.68.13.99-.24.31-.68.37-.99.13-.15-.11-.35-.08-.44-.05-.22.06-.4.2-.47.37-.16.39.07.95.48,1.19.44.26,1.08.25,1.62-.03.61-.31,1.03-.97,1.13-1.77.1-.8-.14-1.54-.66-1.99-.63-.55-1.62-.79-2.72-.65-1.08.13-2.02.57-2.65,1.23-1.28,1.32-1.24,3.78.07,5.26,1.26,1.43,3.54,1.96,5.53,1.3,1.9-.63,3.43-2.32,3.81-4.19.39-1.93-.48-4.06-2.07-5.08-.98-.63-2.18-.88-3.33-1.07-2.14-.37-4.84-.62-6.73.71-1.52,1.07-2.22,2.98-2.55,4.39-.38,1.67-.43,3.24-.13,4.67.43,2.07,1.65,3.97,3.35,5.23,1.84,1.37,4.14,1.88,6.15,1.37,1.17-.3,2.34-.95,3.57-1.99,2.85-2.42,4.61-5.85,4.71-9.18.1-3.64-1.84-7.1-4.83-8.61-1.35-.68-3-1.01-4.79-.98-5.11.1-10.03,3.43-11.96,8.08-1.95,4.7-.69,10.59,2.98,13.99,3.71,3.44,9.76,4.16,14.09,1.67,1.85-1.06,3.56-2.73,5.23-5.08,1.93-2.71,3-5.19,3.26-7.6.28-2.53-.31-5.06-.93-7.21-.51-1.77-1.15-3.6-2.34-4.99-1.06-1.24-2.66-2.21-4.61-2.81-4.03-1.22-8.53-.58-12.06,1.72-1.6,1.04-3.12,2.48-4.64,4.4-2.21,2.79-3.68,5.65-4.37,8.5-.79,3.27-.53,6.56.75,9.25,1.79,3.77,5.4,6.13,8.11,7.44,2.73,1.33,5.33,2,7.71,2.01h.05c5.52,0,10.99-3.72,13.62-9.27,2.35-4.96,2.57-11.09.61-17.28-.89-2.79-1.97-4.76-3.41-6.19-2.1-2.07-4.91-2.9-6.9-3.23-3.04-.5-6.19-.23-9.09.79-3.49,1.22-6.82,3.59-9.61,6.85-3.88,4.53-5.91,9.98-5.56,14.94.2,2.77,1.13,5.63,2.7,8.26,3.39,5.68,9.44,9.59,15.79,10.2,6.57.64,13.24-2.31,16.99-7.5,2.35-3.26,3.69-7.57,3.78-12.15.08-3.97-.71-8.15-2.39-12.79-1.38-3.81-2.93-6.52-4.86-8.53-2.41-2.51-5.58-3.9-8.49-3.73-.38.02-.72-.27-.75-.66-.02-.39.27-.72.66-.75,3.31-.2,6.91,1.36,9.6,4.16,2.07,2.16,3.71,5.03,5.17,9.03,1.75,4.81,2.56,9.16,2.48,13.3-.1,4.93-1.5,9.41-4.05,12.95-3.67,5.08-9.94,8.17-16.36,8.17Z"/><path class="cls-6" d="m526.14,106.91c-4.04-4.8-11.97-5.03-17.95-6.94-6.43-2.05-12.63-6.58-19.25-5.25-5.57,1.11-9.79,6.89-9.16,12.54.25,2.23,1.15,4.37,1.19,6.61.15,7.82-9.6,12.72-10.49,20.49-.74,6.41,4.84,12.09,4.81,18.54-.01,2.37-.75,4.91.37,6.99.57,1.06,1.57,1.85,2.05,2.95.6,1.36.3,2.93,0,4.39-.45,2.15-.56,4.14-.73,6.16-2-2.92-5.73-5.31-7.39-8.62-3.49-6.98,3.15-15.65.43-22.97-1.97-5.31-8.28-8.08-10.21-13.41-1.33-3.66-.29-7.7-.28-11.59.02-8.22-5.05-16.24-12.49-19.73-6.24.69-10.83,7.16-15.74,11.08-5.28,4.21-12.49,6.85-15.06,13.09-2.17,5.25.29,11.97,5.34,14.58,1.99,1.03,4.27,1.47,6.16,2.68,6.59,4.21,5.25,15.04,11.21,20.11,4.92,4.18,12.74,2.69,18.09,6.3,1.96,1.32,3.67,3.35,6.02,3.57,1.2.11,2.41-.28,3.59-.07,1.47.26,2.61,1.38,3.65,2.44,2.14,2.18,4.39,3.64,6.57,5.57.13.12.28.17.43.18.26.07.55.02.76-.23,2.74-3.21,2.04-9.1,4.32-13.1,3.86-6.78,14.77-6.07,19.34-12.4,3.32-4.59,2.12-11.38,5.47-15.94,2.31-3.14,6.24-4.52,9.48-6.67,6.85-4.55,10.7-13.22,9.47-21.35Z"/><path class="cls-5" d="m454.17,171.99c-3.62,0-6.77-2.16-9.63-4.5l-.5-.41c-2.48-2.04-5.04-4.14-8.06-4.64-.8-.13-1.63-.15-2.5-.17-1.42-.03-2.89-.07-4.3-.61-2.1-.81-3.69-2.69-4.16-4.89-.29-1.36-.14-2.75,0-3.98l.68-6.22c.15-1.36.33-3.06,1.31-4.42.82-1.14,2.04-1.82,3.23-2.4,3.37-1.62,6.59-2.45,9.57-2.48h0c8.35-.08,17.5,7.67,20.5,14.68,2.01,4.69,2.17,10.14.46,14.94-.4,1.13-1.1,2.77-2.47,3.83-1.01.79-2.34,1.23-3.84,1.27-.1,0-.19,0-.29,0Zm-14.34-32.99c-2.73.03-5.71.8-8.84,2.31-.99.47-1.98,1.03-2.57,1.85-.71.99-.86,2.37-.99,3.59l-.68,6.22c-.13,1.15-.26,2.35-.03,3.43.34,1.61,1.55,3.04,3.09,3.64,1.13.44,2.38.47,3.71.5.9.02,1.82.04,2.74.2,3.48.57,6.22,2.83,8.88,5.01l.5.41c2.68,2.19,5.6,4.2,8.76,4.1.79-.02,1.92-.2,2.84-.91,1.01-.78,1.57-2.11,1.9-3.04,1.57-4.4,1.42-9.38-.42-13.68-2.76-6.46-11.36-13.63-18.78-13.63-.04,0-.07,0-.11,0h0Z"/><path class="cls-6" d="m19.62,421.31c.58,1.39,2.32,2.29,3.7,1.69.52-.22.94-.61,1.31-1.04.9-1.02,1.55-2.25,1.87-3.57.16-.66.24-1.4-.1-2-.26-.47-.74-.77-1.24-.96-3.4-1.29-6.95,2.53-5.56,5.88Z"/><path class="cls-6" d="m28.94,418.46c.56,1.01,1.96,1.38,3.04.96,1.08-.43,1.82-1.5,2.04-2.64.58-2.88-2.03-4.91-4.74-4.21-.87.23-1.77.7-1.81,1.7-.03.64.55,1.15.77,1.7.32.8.28,1.73.7,2.49Z"/><path class="cls-6" d="m22.63,412.55c.14.26.32.51.56.69.52.39,1.25.36,1.88.2.35-.09.7-.22.99-.44.74-.57.94-1.6.92-2.54,0-.21-.02-.43-.08-.63-.36-1.3-2.38-1.72-3.45-1.07-1.25.76-1.48,2.61-.83,3.79Z"/><path class="cls-6" d="m33.6,412.47c.47.67,1.4,1,2.16.72.49-.18.89-.6,1.09-1.09.2-.49.21-1.04.08-1.55-.18-.69-.63-1.32-1.28-1.62-2.23-1.02-3.09,2.07-2.06,3.54Z"/><path class="cls-6" d="m26.6,422.19c-.17.8.29,1.67,1.02,2.02s1.67.18,2.27-.37c.65-.6.88-1.61.55-2.42-.35-.86-1.61-1.74-2.56-1.27-.54.27-1.16,1.48-1.28,2.04Z"/><path class="cls-1" d="m439.62,314.31c.58,1.39,2.32,2.29,3.7,1.69.52-.22.94-.61,1.31-1.04.9-1.02,1.55-2.25,1.87-3.57.16-.66.24-1.4-.1-2-.26-.47-.74-.77-1.24-.96-3.4-1.29-6.95,2.53-5.56,5.88Z"/><path class="cls-1" d="m448.94,311.46c.56,1.01,1.96,1.38,3.04.96,1.08-.43,1.82-1.5,2.04-2.64.58-2.88-2.03-4.91-4.74-4.21-.87.23-1.77.7-1.81,1.7-.03.64.55,1.15.77,1.7.32.8.28,1.73.7,2.49Z"/><path class="cls-1" d="m442.63,305.55c.14.26.32.51.56.69.52.39,1.25.36,1.88.2.35-.09.7-.22.99-.44.74-.57.94-1.6.92-2.54,0-.21-.02-.43-.08-.63-.36-1.3-2.38-1.72-3.45-1.07-1.25.76-1.48,2.61-.83,3.79Z"/><path class="cls-1" d="m453.6,305.47c.47.67,1.4,1,2.16.72.49-.18.89-.6,1.09-1.09.2-.49.21-1.04.08-1.55-.18-.69-.63-1.32-1.28-1.62-2.23-1.02-3.09,2.07-2.06,3.54Z"/><path class="cls-1" d="m446.6,315.19c-.17.8.29,1.67,1.02,2.02s1.67.18,2.27-.37c.65-.6.88-1.61.55-2.42-.35-.86-1.61-1.74-2.56-1.27-.54.27-1.16,1.48-1.28,2.04Z"/><path class="cls-10" d="m211.86,383.36c-.72-.95-1.46-1.87-2.22-2.78-.39-.46-.61-.93-.7-1.56-.34-2.48-1.26-4.7-2.83-6.6-2.4-2.9-5.17-4.91-8.32-5.92-2.64-.85-5.3-1.5-7.95-2.25-.88-.25-1.7-.62-2.47-1.36-1.26-1.21-2.71-1.88-4.2-2.28-1.41-.38-2.76-.15-4.11.04-1.29.18-2.59.35-3.9.42-1.28.06-2.54-.32-3.72-1.25-.93-.73-1.92-1.21-2.95-1.55-.94-.31-1.45-.04-1.7,1-.15.63-.27,1.29-.27,1.97,0,2.28-.46,4.34-1.13,6.33-.36,1.05-.69,2.13-.86,3.26-.28,1.82-.11,3.65,1.06,5.33.14.2.21.46.3.7.59,1.52,1.18,3.03,1.77,4.55.46,1.17,1.04,2.31,1.38,3.5.55,1.91,0,3.59-.55,5.15-.63,1.78-1.07,3.63-1.5,5.5-.4,1.75.06,3.29,1.16,4.68.53.67,1.16,1.23,1.77,1.81,1.01.97,2.04,1.89,3.04,2.88.94.94,1.88.74,2.17-.52.05-.23.09-.48.12-.72.17-1.83.33-3.65.48-5.49.06-.75.16-1.46.59-2.01,1.21-1.54,1.29-3.48.5-5.58-.43-1.14-.7-2.26-.84-3.43-.18-1.41-.63-2.73-1.31-3.98-.63-1.17-1.27-2.33-1.85-3.53-.86-1.77-1.7-3.58-2.08-5.5-.32-1.63-.78-3.14-1.57-4.59-.22-.41-.28-1-.27-1.48.01-.58.37-.8.82-.52.53.33,1.07.72,1.5,1.21.93,1.05,1.43,2.37,1.7,3.78.1.54.21,1.09.34,1.62.62,2.49,1.84,4.7,2.99,6.92.99,1.91,1.77,3.81,2.08,5.93.08.57.27,1.15.5,1.69.97,2.32,2.35,4.21,4.26,5.54,1.06.74,1.78,1.83,2.22,3.24.67,2.16,1.44,4.29,2.19,6.43.44,1.26.97,2.5,1.81,3.51.93,1.11,2,.88,2.29-.48.11-.5.13-1.04.2-1.56.21-1.38.5-2.73.64-4.13.17-1.74.01-3.48-.82-5.23-.96-2.03-2.19-3.82-3.46-5.58-1.17-1.63-2.24-3.37-2.8-5.35-.43-1.52-1.09-2.91-1.71-4.33-.85-1.94-2.05-3.55-3.56-4.84-.29-.25-.57-.51-.86-.75-1.15-.99-2.07-2.22-2.81-3.66-.45-.89-.95-1.74-1.43-2.61-.28-.5-.44-.99-.2-1.63.32.23.61.38.85.62.87.87,1.72,1.77,2.57,2.67,1.77,1.88,3.55,3.76,5.3,5.67.45.49.89,1.03,1.23,1.63.52.93,1,1.9,1.41,2.89.81,1.95,1.92,3.65,3.22,5.2.27.32.6.6.93.81.91.55,1.84,1.03,2.75,1.57.71.42,1.41.88,2.1,1.37.63.44,1.07,1.06,1.3,1.92.22.86.54,1.69.84,2.54.78,2.24,2.25,3.42,4.09,3.92.34.09.77-.1,1.04-.34.28-.24.51-.65.61-1.06.28-1.09.53-2.2.71-3.34.14-.91.02-1.84-.37-2.78-.77-1.84-1.82-3.47-3.07-4.88-4.14-4.68-8.76-8.42-13.73-11.51-.69-.43-1.48-.72-2-1.55-1.16-1.85-2.59-3.37-4.12-4.76-.82-.74-1.64-1.48-2.46-2.23,0-.07.02-.15.02-.22.38-.03.75-.13,1.13-.08,1.48.2,2.88.77,4.23,1.77,2.33,1.73,4.57,3.64,6.62,5.86.95,1.02,1.98,1.79,3.16,2.05,1.08.24,2.18.39,3.25.42.58.02,1.08.18,1.58.56.99.75,1.88,1.65,2.6,2.77,1.34,2.09,2.69,4.17,3.99,6.3,1.44,2.35,3.32,3.64,5.55,4.09,1.32.27,2.45-.67,2.77-2.13.31-1.41-.24-2.56-1.06-3.64Z"/><path class="cls-13" d="m41.37,364c-.16,1.33-.26,2.44-.44,3.54-.09.52-.27,1.04-.52,1.51-.5.92-1.07,1.81-1.61,2.71-.14.22-.3.43-.51.72-1.72-2.37-3.39-4.67-5.17-7.11-.36.64-.66,1.18-.96,1.72-.32.6-.63,1.2-.94,1.8-.3.57-.6,1.13-.93,1.77-1-.44-1.96-.85-2.91-1.27-1.08-.48-2.31-.8-3.19-1.52-.91-.75-1.5-1.91-2.22-2.89-.18-.24-.33-.5-.56-.85,19.07-5.05,38.04-10.07,57.03-15.1.08.23.13.32.13.41.22,2.84.42,5.68.65,8.52.04.53-.09.91-.53,1.22-.44.31-.84.68-1.33,1.09-1.97-1.42-3.91-2.82-5.99-4.32-.72,2.29-1.2,4.56-1.9,6.83-.83-.21-1.56-.48-2.19-1.03-1.13-.98-2.27-1.94-3.41-2.9-.28-.24-.57-.46-.92-.74-.83,2.58-1.62,5.06-2.46,7.66-3.16-1.79-6.21-3.57-9.21-5.7-.64,3.13-1.25,6.11-1.89,9.22-2.7-1.78-5.29-3.48-8.03-5.29Z"/><path class="cls-7" d="m406.16,480.53c-2.05-.7-3.89-1.56-5.72-2.7-1.26-.79-3.24.14-4.53,2.14-4.66,7.19-9.32,14.38-13.95,21.61-8.34-4.52-16.78-8.87-25.37-13-2.3-1.1-4.6-.75-5.12.78-.7,2.05-1.55,3.89-2.7,5.72-.79,1.26.14,3.23,2.13,4.52,7.62,4.94,15.25,9.87,22.9,14.77,2.17,1.39,4.34,2.78,6.52,4.16,3.8,2.42,8.87,1.14,11.04-2.81,1.26-2.28,2.5-4.57,3.73-6.87,4.1-7.63,8.06-15.35,11.83-23.19,1.11-2.3.75-4.61-.78-5.12Z"/><path class="cls-8" d="m-1.13,342.45c-.31,0-.61-.01-.92-.04-2.44-.2-4.58-1.18-6.17-2.01-1.66-.86-3.77-2.11-5.4-4.1-2.97-3.62-3.73-8.77-2.26-15.31,1.06-4.73,2.71-8.46,5.04-11.41h0c3.23-4.09,8.79-6.66,14.08-6.54,4.29.09,7.95,1.95,10.32,5.22,1.94,2.68,2.82,6.27,2.63,10.68-.19,4.56-1.38,9.12-3.41,13.2-1.55,3.1-3.36,5.46-5.53,7.2-2.49,2-5.5,3.1-8.38,3.1Zm-5.5-29.54c-1.82,2.3-3.14,5.33-4.02,9.27-.75,3.33-1.15,7.89,1.18,10.73.79.97,1.94,1.81,3.73,2.74,1.14.6,2.65,1.3,4.14,1.42,1.79.15,3.8-.54,5.5-1.9,1.56-1.25,2.9-3.02,4.09-5.42,1.7-3.41,2.69-7.23,2.85-11.03.14-3.18-.41-5.64-1.62-7.31-1.74-2.41-4.28-2.97-6.09-3-3.58-.07-7.61,1.78-9.77,4.51h0Z"/><path class="cls-2" d="m282.88,362.53s0,0,0,0c-1.85,1.74-4.26,2.19-5.96,2.26-1.49.06-2.9-.13-4.27-.31-.69-.09-1.35-.18-2-.24-2.02-.17-3.48.09-4.48.78-.7.49-1.34,1.32-1.93,2.54-1.43,2.94-1.88,6.33-1.27,9.54l-4,.76c-.78-4.07-.2-8.36,1.61-12.08.91-1.86,1.97-3.2,3.27-4.1,1.81-1.26,4.15-1.75,7.14-1.49.75.06,1.49.16,2.2.26,1.25.17,2.43.33,3.57.28,1.42-.06,2.6-.46,3.32-1.15,0,0,0,0,0,0,.51-.49.94-1.23,1.3-2.26.62-1.79.86-3.74,1.11-5.8.31-2.58.64-5.24,1.76-7.78,2.15-4.85,7.15-8.32,12.45-8.62,1.01-.06,2-.01,2.96.04,1.73.08,3.37.16,4.65-.43,1.9-.88,2.92-3.21,3.43-5.01.25-.86.44-1.75.65-2.69.38-1.74.77-3.53,1.54-5.28l3.72,1.65c-.61,1.37-.94,2.89-1.29,4.5-.21.96-.43,1.96-.71,2.95-1.07,3.75-3.02,6.36-5.63,7.57-2.18,1.01-4.5.9-6.55.8-.89-.04-1.74-.08-2.54-.04-3.82.22-7.42,2.71-8.97,6.21-.88,1.98-1.15,4.24-1.44,6.62-.27,2.19-.54,4.45-1.31,6.66-.58,1.67-1.35,2.94-2.35,3.88Z"/><path class="cls-2" d="m287.8,367.73s0,0,0,0c-1.85,1.74-4.26,2.19-5.96,2.26-1.49.06-2.9-.13-4.27-.32-.69-.09-1.35-.18-2-.24-2.01-.17-3.48.09-4.48.78-.71.49-1.34,1.32-1.93,2.54-1.43,2.94-1.88,6.33-1.27,9.54l-4,.76c-.78-4.07-.2-8.36,1.61-12.08.91-1.86,1.98-3.2,3.27-4.1,1.81-1.26,4.15-1.75,7.14-1.49.75.06,1.49.16,2.2.26,1.25.17,2.43.33,3.57.28,1.42-.06,2.6-.46,3.32-1.15,0,0,0,0,0,0,.51-.49.94-1.23,1.3-2.26.62-1.79.86-3.74,1.11-5.8.31-2.58.64-5.24,1.76-7.78,2.15-4.85,7.16-8.32,12.45-8.62,1.01-.06,2-.01,2.96.04,1.73.08,3.37.16,4.65-.43,1.9-.88,2.91-3.21,3.43-5.01.25-.86.44-1.75.65-2.69.38-1.74.77-3.53,1.54-5.28l3.72,1.65c-.61,1.37-.94,2.89-1.29,4.5-.21.96-.43,1.96-.71,2.95-1.08,3.75-3.02,6.37-5.63,7.57-2.18,1.01-4.5.9-6.55.8-.89-.04-1.74-.08-2.54-.04-3.82.22-7.42,2.71-8.97,6.21-.88,1.98-1.15,4.24-1.44,6.62-.27,2.19-.54,4.45-1.31,6.66-.58,1.67-1.35,2.94-2.35,3.88Z"/><path class="cls-2" d="m292.72,372.94s0,0,0,0c-1.85,1.74-4.26,2.19-5.96,2.26-1.49.06-2.9-.13-4.27-.32-.69-.09-1.35-.18-2-.24-2.01-.17-3.48.08-4.48.78-.71.49-1.34,1.32-1.93,2.54-1.43,2.94-1.88,6.33-1.27,9.54l-3.99.76c-.78-4.07-.2-8.36,1.61-12.08.91-1.86,1.98-3.2,3.27-4.1,1.81-1.26,4.15-1.75,7.14-1.49.75.06,1.49.16,2.2.26,1.25.17,2.43.33,3.57.28,1.42-.06,2.6-.46,3.32-1.15,0,0,0,0,0,0,.51-.49.94-1.23,1.3-2.26.62-1.79.86-3.74,1.11-5.8.31-2.58.64-5.24,1.76-7.78,2.15-4.85,7.16-8.32,12.45-8.62,1.01-.06,2-.01,2.96.04,1.73.08,3.37.16,4.65-.43,1.9-.88,2.91-3.21,3.43-5.01.25-.86.44-1.75.65-2.69.38-1.74.77-3.53,1.54-5.28l3.72,1.65c-.61,1.37-.94,2.89-1.29,4.5-.21.96-.43,1.96-.71,2.95-1.08,3.75-3.02,6.37-5.63,7.57-2.18,1.01-4.5.9-6.55.8-.89-.04-1.74-.08-2.54-.04-3.82.22-7.42,2.71-8.97,6.21-.88,1.98-1.15,4.24-1.44,6.62-.27,2.19-.54,4.45-1.31,6.66-.58,1.67-1.35,2.94-2.35,3.88Z"/><path class="cls-8" d="m402.6,310.57c-1.29,1.71-1.82,3.87-2.14,5.99-1.16,7.76.22,15.88,3.88,22.81,1.3,2.47,2.97,4.87,5.41,6.24,2.43,1.37,5.77,1.42,7.8-.49,1.36-1.29,1.92-3.18,2.87-4.79.96-1.61,2.76-3.07,4.55-2.52,1.47.45,2.24,2.05,2.7,3.52,1.27,4.06,1.55,8.41,3.22,12.32,1.66,3.91,5.34,7.48,9.57,7.08,4.06-.39,6.9-4.16,8.68-7.83,5.92-12.23,5.85-26.98.73-39.57-1.16-2.86-2.62-5.68-4.89-7.77-2.27-2.09-5.49-3.34-8.49-2.63-3.73.89-6.19,4.5-7.47,8.12-1.29,3.62-1.79,7.52-3.52,10.94-1.34,2.66-4.28,5.19-7.03,4.04-2.09-.87-2.89-3.44-2.89-5.71,0-2.26.52-4.56.01-6.77-1.32-5.68-9.37-7.77-12.98-2.99Z"/><path class="cls-2" d="m382.21,462.52c-1.41,0-2.64-.33-3.56-.99-.95-.69-2.06-2.08-1.93-4.84.19-3.91,1.6-6.64,3.96-7.69.35-.16.71-.27,1.05-.37.41-.13.79-.25,1.11-.43.92-.53,1.37-1.65,1.86-2.84.47-1.14.95-2.32,1.9-3.22.95-.9,2.26-1.33,3.7-1.24,1.69.11,3.31.94,4.34,2.22,1.61,1.99,2.1,4.93,1.35,8.06h0c-1.11,4.62-4.65,8.6-9.23,10.4-1.61.63-3.16.94-4.53.94Zm7.69-19.9c-.84,0-1.59.27-2.12.78-.68.64-1.07,1.6-1.48,2.61-.57,1.4-1.16,2.85-2.59,3.68-.48.28-.98.44-1.46.59-.31.1-.6.19-.86.3-2.34,1.04-2.84,4.33-2.93,6.2-.08,1.59.33,2.72,1.21,3.35,1.57,1.13,4.37.66,6.45-.16,4.07-1.59,7.2-5.11,8.18-9.19h0c.63-2.6.26-5-1.01-6.57-.72-.89-1.91-1.5-3.11-1.58-.09,0-.18,0-.27,0Z"/><path class="cls-2" d="m379.13,467.04c-1.2,0-2.4-.12-3.57-.39-2.27-.53-4.17-2.04-5.36-4.25-1.5-2.8-1.73-6.4-.61-9.39,1.35-3.6,4.54-6.68,8.75-8.47.35-.15.7-.29,1.06-.43,1.26-.5,2.46-.97,3.36-1.8.54-.5.98-1.13,1.44-1.79.19-.27.38-.55.57-.81,1.87-2.53,5.25-5.05,9.12-4.55,2.56.33,4.94,2.01,6.37,4.48,1.2,2.08,1.74,4.67,1.56,7.51-.33,5.02-2.83,9.96-6.88,13.56-3.73,3.32-9.87,6.34-15.82,6.34Zm13.77-30.22c-2.81,0-5.28,1.96-6.73,3.91-.19.25-.36.51-.54.77-.49.72-1,1.45-1.69,2.08-1.14,1.05-2.54,1.6-3.89,2.13-.34.13-.68.27-1.02.41-3.78,1.6-6.62,4.33-7.81,7.49-.94,2.5-.74,5.63.51,7.97.67,1.25,1.95,2.85,4.22,3.38,6.33,1.47,13.69-1.85,17.84-5.55h0c3.71-3.3,6-7.81,6.3-12.38.11-1.74-.03-4.29-1.33-6.53-1.15-1.98-3.1-3.37-5.1-3.63-.26-.03-.52-.05-.77-.05Z"/><path class="cls-2" d="m374.7,473.46c-4.72,0-8.15-1.38-10.23-4.11-3.67-4.82-3.37-11.72-1.44-16.41,2.61-6.35,8-10.51,12.06-12.89.96-.56,1.95-1.09,2.91-1.6,1.28-.68,2.6-1.39,3.84-2.17,1.02-.65,2.06-1.39,3.06-2.1,3.46-2.47,7.03-5.02,11.38-4.94,3.22.06,6.48,1.72,8.74,4.44,1.96,2.38,3.2,5.51,3.56,9.06.76,7.33-2.33,15.08-8.26,20.73-5.1,4.85-12.15,8.15-20.38,9.52h0c-1.89.32-3.64.47-5.24.47Zm21.39-42.49c-3.7,0-6.85,2.25-10.19,4.62-1.02.73-2.08,1.48-3.14,2.15-1.29.81-2.64,1.54-3.95,2.23-.94.5-1.92,1.02-2.85,1.57-3.83,2.24-8.9,6.15-11.33,12.05-1.74,4.24-2.04,10.42,1.21,14.7,2.37,3.11,7.01,4.12,13.81,2.98h0c7.89-1.32,14.62-4.46,19.47-9.07,5.55-5.28,8.44-12.49,7.73-19.29-.33-3.21-1.43-6.02-3.18-8.13-1.93-2.34-4.71-3.77-7.43-3.82-.05,0-.11,0-.16,0Z"/><path class="cls-2" d="m374.61,480.9c-1.25,0-2.45-.08-3.6-.25h0c-4.67-.68-8.52-2.97-11.15-6.63-3.37-4.7-4.58-11.34-3.31-18.21,1.16-6.3,4.7-12.2,9.71-16.19,2.49-1.99,5.32-3.51,8.05-4.98.87-.47,1.73-.93,2.59-1.41,1.14-.64,2.28-1.32,3.39-1.98,3-1.78,6.1-3.62,9.44-4.9,5.4-2.07,10.63-2.18,14.73-.32,3.67,1.67,6.74,5.03,8.63,9.49,3.75,8.81,2.07,20.01-4.28,28.52-5.49,7.35-14.31,12.88-24.84,15.56-3.43.87-6.53,1.31-9.36,1.31Zm-3.35-1.96c3.55.51,7.57.18,12.29-1.02,10.15-2.58,18.63-7.88,23.88-14.91,5.99-8.03,7.59-18.56,4.08-26.81-1.72-4.05-4.48-7.1-7.76-8.59-3.68-1.67-8.44-1.54-13.4.36-3.2,1.23-6.24,3.03-9.17,4.77-1.12.66-2.27,1.35-3.43,2-.87.49-1.74.96-2.62,1.43-2.66,1.44-5.42,2.92-7.79,4.81-4.69,3.73-8,9.26-9.09,15.15-1.17,6.32-.04,12.63,3.01,16.88,2.38,3.32,5.74,5.31,9.99,5.93h0Z"/><path class="cls-2" d="m431.49,14.84c-2.52.79-4.87,2.13-6.84,3.9-.98.88-1.93,2.15-1.5,3.4.45,1.32,2.1,1.69,3.49,1.86,4.67.58,9.33,1.27,13.98,2.06,1.25.21,2.78.7,2.97,1.95.09.62-.19,1.22-.47,1.78-1.39,2.79-2.78,5.57-4.17,8.36-.8,1.61-1.53,3.77-.24,5.02.62.61,1.54.78,2.41.89,2.31.3,4.64.41,6.96.32,2.37-.09,4.87-.36,6.99.7.43.21.86.51,1.01.96.16.49-.04,1.01-.24,1.49-1.16,2.71-2.32,5.43-3.48,8.14-1.03,2.41-2.07,5.17-1.01,7.57.83,1.9,2.84,3.08,4.88,3.47s4.14.11,6.2-.17c3.29-.45,6.62-.9,9.71-2.12,1.66-.66.16-3.89-1.19-5.06-1.35-1.17-3.25-1.47-5.03-1.48-1.79-.01-3.6.2-5.34-.18-.33-.07-.67-.17-.91-.4-.7-.65-.24-1.81.26-2.62.98-1.63,1.94-3.3,2.45-5.13.51-1.83.54-3.87-.31-5.56-1.25-2.48-4.09-3.75-6.83-4.23-2.74-.48-5.57-.37-8.26-1.04-.3-.07-.63-.18-.78-.45-.15-.27-.07-.6,0-.89.73-2.72,1.46-5.44,2.19-8.16.28-1.05.57-2.14.4-3.22-.39-2.47-2.93-3.95-5.31-4.74-2.72-.9-5.59-1.36-8.46-1.34-.39,0-.8,0-1.13-.2-.58-.36-.63-1.19-.47-1.85.16-.66.48-1.31.42-1.99-.07-.68-1.66-1.23-2.31-1.03Z"/><path class="cls-2" d="m445.13,4.77c-2.52.79-4.87,2.13-6.84,3.9-.98.88-1.93,2.15-1.5,3.4.45,1.32,2.1,1.69,3.49,1.86,4.67.58,9.33,1.27,13.98,2.06,1.25.21,2.78.7,2.97,1.95.09.62-.19,1.22-.47,1.78-1.39,2.79-2.78,5.57-4.17,8.36-.8,1.61-1.53,3.77-.24,5.02.62.61,1.54.78,2.41.89,2.31.3,4.64.41,6.96.32,2.37-.09,4.87-.36,6.99.7.43.21.86.51,1.01.96.16.49-.04,1.01-.24,1.49-1.16,2.71-2.32,5.43-3.48,8.14-1.03,2.41-2.07,5.17-1.01,7.57.83,1.9,2.84,3.08,4.88,3.47,2.04.39,4.14.11,6.2-.17,3.29-.45,6.62-.9,9.71-2.12,1.66-.66.16-3.89-1.19-5.06-1.35-1.17-3.25-1.47-5.03-1.48-1.79-.01-3.6.2-5.34-.18-.33-.07-.67-.17-.91-.4-.7-.65-.24-1.81.26-2.62.98-1.63,1.94-3.3,2.45-5.13.51-1.83.54-3.87-.31-5.56-1.25-2.48-4.09-3.75-6.83-4.23-2.74-.48-5.57-.37-8.26-1.04-.3-.07-.63-.18-.78-.45-.15-.27-.07-.6,0-.89.73-2.72,1.46-5.44,2.19-8.16.28-1.05.57-2.14.4-3.22-.39-2.47-2.93-3.95-5.31-4.74-2.72-.9-5.59-1.36-8.46-1.34-.39,0-.8,0-1.13-.2-.58-.36-.63-1.19-.47-1.85.16-.66.48-1.31.42-1.99s-1.66-1.23-2.31-1.03Z"/><path class="cls-14" d="m232.94,462.74c-5-8.15-7.77-17.72-5.94-27.03.79-4,2.62-7.88,5.63-10.64,1.1-1.01,2.45-1.9,3.95-1.93,2.37-.04,4.28,2.14,4.87,4.43.59,2.29.21,4.7.05,7.06-.31,4.45.18,8.96,1.42,13.25,2.04-4.35,5.17-8.87,8.63-12.21,2.05-1.98,4.38-3.77,7.08-4.69,1.34-.46,2.83-.69,4.18-.24,1.35.45,2.49,1.72,2.44,3.14-.03.8-.42,1.54-.81,2.25-3.44,6.19-7.61,11.97-12.39,17.19,3.5-1.35,7.02-2.62,10.52-3.97,2.25-.87,4.53-1.75,6.93-2.06,2.4-.31,4.95,0,6.96,1.33.74.49,1.41,1.14,1.69,1.98.39,1.17-.04,2.46-.7,3.51-1.84,2.95-5.2,4.57-8.49,5.73-3.28,1.16-6.75,2.06-9.52,4.17,4.75.77,9.77,2.34,13.82,4.95,1.97,1.27,3.97,3.01,4.21,5.34.14,1.38-.37,2.75-1.09,3.94-2.01,3.32-5.62,5.51-9.43,6.23-9.23,1.74-18.13-4.34-24.59-10.3-3.52-3.25-6.77-7.15-9.41-11.45Z"/><path class="cls-14" d="m471.94,519.74c-5-8.15-7.77-17.72-5.94-27.03.79-4,2.62-7.88,5.63-10.64,1.1-1.01,2.45-1.9,3.95-1.93,2.37-.04,4.28,2.14,4.87,4.43.59,2.29.21,4.7.05,7.06-.31,4.45.18,8.96,1.42,13.25,2.04-4.35,5.17-8.87,8.63-12.21,2.05-1.98,4.38-3.77,7.08-4.69,1.34-.46,2.83-.69,4.18-.24,1.35.45,2.49,1.72,2.44,3.14-.03.8-.42,1.54-.81,2.25-3.44,6.19-7.61,11.97-12.39,17.19,3.5-1.35,7.02-2.62,10.52-3.97,2.25-.87,4.53-1.75,6.93-2.06,2.4-.31,4.95,0,6.96,1.33.74.49,1.41,1.14,1.69,1.98.39,1.17-.04,2.46-.7,3.51-1.84,2.95-5.2,4.57-8.49,5.73-3.28,1.16-6.75,2.06-9.52,4.17,4.75.77,9.77,2.34,13.82,4.95,1.97,1.27,3.97,3.01,4.21,5.34.14,1.38-.37,2.75-1.09,3.94-2.01,3.32-5.62,5.51-9.43,6.23-9.23,1.74-18.13-4.34-24.59-10.3-3.52-3.25-6.77-7.15-9.41-11.45Z"/><path class="cls-8" d="m247.45,410.84c-.69-.11-1.38-.18-2.07-.22.02-.64,0-1.28-.05-1.92-.07-.79-.33-1.99-1.27-2.15-1.11-.19-1.21,1.18-1.34,1.98-.11.71-.18,1.42-.22,2.13-1.02.08-2.03.24-3.03.47-.5.12-1.1.4-1.06.91.04.49.63.69,1.11.77.99.17,1.99.34,3,.47.08,1.09.23,2.17.48,3.24.12.5.4,1.1.91,1.06.49-.04.69-.63.77-1.11.17-.98.33-1.97.46-2.96.71.03,1.43.02,2.14-.04.79-.07,1.99-.33,2.15-1.27.19-1.11-1.18-1.21-1.98-1.34Z"/><path class="cls-8" d="m252.77,401.69c-.51-.08-1.03-.14-1.55-.17.01-.48,0-.96-.04-1.45-.05-.59-.25-1.5-.96-1.61-.84-.14-.91.89-1,1.48-.08.53-.14,1.06-.17,1.6-.76.06-1.52.18-2.27.35-.37.09-.83.3-.8.68.03.37.48.52.84.58.75.13,1.5.25,2.25.35.06.82.18,1.63.36,2.43.09.37.3.83.68.8.37-.03.52-.48.58-.84.13-.74.25-1.48.35-2.22.54.02,1.07.01,1.61-.03.59-.05,1.5-.25,1.61-.96.14-.84-.89-.91-1.48-1Z"/><path class="cls-8" d="m238.56,405.62c-.51-.08-1.03-.14-1.55-.17.01-.48,0-.96-.04-1.45-.05-.59-.25-1.5-.96-1.61-.84-.14-.91.89-1,1.48-.08.53-.14,1.06-.17,1.6-.76.06-1.52.18-2.27.35-.37.09-.83.3-.8.68.03.37.48.52.84.58.75.13,1.5.25,2.25.35.06.82.18,1.63.36,2.43.09.37.3.83.68.8.37-.03.52-.48.58-.84.13-.74.25-1.48.35-2.22.54.02,1.07.01,1.61-.03.59-.05,1.5-.25,1.61-.96.14-.84-.89-.91-1.48-1Z"/><path class="cls-14" d="m199.11,469.8c1.94.16,3.51-1.61,3.07-3.5-.31-1.32-.74-2.62-1.3-3.86-.7-1.57-1.62-3.08-2.95-4.17-3.32-2.71-8.49-2.01-11.92.56-1.91,1.44-3.39,3.32-4.6,5.39-1.07,1.83.18,4.15,2.29,4.32l15.41,1.25Z"/><path class="cls-2" d="m205.43,456.29c-3.07-4.53-8.51-7.25-13.98-7.36-5.46-.1-10.86,2.31-14.72,6.19-2.51,2.52-4.14,5.64-5.16,9.01-.52,1.73.73,3.5,2.53,3.64h0c1.19.1,2.31-.56,2.82-1.64,1.86-3.92,4.45-7.47,8.07-9.79,4.82-3.07,11.74-3.32,15.89.59,1.16,1.09,2.05,2.43,2.79,3.83,1.39,2.64,2.28,5.54,2.62,8.5.07.64.57,1.15,1.21,1.2h.1c.81.07,1.49-.6,1.43-1.41-.3-4.55-1.09-9.06-3.61-12.78Zm-31.46,9.36c-.64-.05-1.11-.61-1.06-1.24.05-.64.61-1.11,1.25-1.06.63.05,1.11.61,1.05,1.25-.05.63-.61,1.11-1.24,1.06Zm2.71-4.97c-.63-.05-1.11-.61-1.06-1.24.05-.64.61-1.11,1.24-1.06.64.05,1.11.61,1.05,1.25-.05.63-.6,1.11-1.24,1.06Zm4.89-4.53c-.63-.05-1.11-.61-1.05-1.25.05-.63.61-1.11,1.24-1.06.63.05,1.11.61,1.06,1.24-.05.64-.61,1.11-1.24,1.06Zm7.18-3.07c-.63-.05-1.11-.61-1.06-1.24.05-.64.61-1.11,1.24-1.06.64.05,1.11.61,1.06,1.25-.05.63-.61,1.11-1.25,1.05Zm6.85.17c-.63-.05-1.11-.61-1.06-1.24.05-.64.61-1.11,1.24-1.06.64.05,1.11.61,1.05,1.25-.05.63-.6,1.11-1.24,1.06Zm7.02,3.74c-.64-.05-1.11-.6-1.06-1.24.05-.63.6-1.11,1.24-1.06.63.05,1.11.61,1.06,1.24-.05.64-.61,1.11-1.24,1.06Zm3.24,5.54c-.63-.05-1.11-.6-1.06-1.24.05-.63.61-1.11,1.24-1.06.63.05,1.11.61,1.06,1.24-.05.64-.61,1.11-1.24,1.06Zm1.61,5.5c-.45-.04-.78-.43-.75-.88.04-.45.43-.79.88-.75.45.04.78.43.75.89-.04.45-.43.78-.88.75Z"/><path class="cls-8" d="m165.21,467.06c1.43.12,2.79-.73,3.27-2.09.99-2.8,2.41-5.47,4.04-7.96,1.46-2.24,3.1-4.37,5.08-6.17,3.51-3.18,8.11-5.18,12.85-5.4,4.73-.22,9.56,1.39,13.1,4.54,3.33,2.97,5.4,7.15,6.56,11.46.67,2.47,1.05,5,1.32,7.55.11,1.05.96,1.87,2.01,1.96h0c1.34.11,2.47-1,2.38-2.33-.35-4.99-1.45-9.93-3.29-14.59-.83-2.11-1.83-4.19-3.27-5.95-1.48-1.79-3.38-3.19-5.36-4.4-7.3-4.41-16.73-6.25-24.4-2.54-2.24,1.08-4.25,2.59-6.1,4.25-5.25,4.72-8.82,10.81-10.99,17.46-.64,1.97.74,4.02,2.8,4.19h0Z"/><path class="cls-14" d="m419.08,403.78c9.03-4.2,17.14-10.7,23.36-18.49.78-.97,2.22-1.05,3.1-.17,1.4,1.41,2.62,3,3.62,4.71.41.72.37,1.62-.13,2.28-6.76,8.94-16.28,15.75-26.82,19.58-1.09.4-2.3-.18-2.68-1.27-.46-1.32-.96-2.69-1.49-3.98-.42-1.02.04-2.2,1.04-2.66Z"/><path class="cls-14" d="m413.89,392.64c7.96-3.7,15.1-9.42,20.58-16.28.68-.86,1.96-.93,2.73-.15,1.24,1.24,2.31,2.64,3.18,4.15.37.63.33,1.43-.11,2.01-5.95,7.88-14.34,13.87-23.63,17.25-.96.35-2.03-.15-2.36-1.12-.4-1.17-.84-2.37-1.32-3.5-.37-.9.03-1.93.92-2.35Z"/><path class="cls-14" d="m410.55,383.09c6.21-2.89,11.77-7.35,16.05-12.7.53-.67,1.53-.72,2.13-.12.96.97,1.8,2.06,2.48,3.24.28.49.26,1.11-.09,1.57-4.64,6.14-11.18,10.82-18.43,13.45-.75.27-1.58-.12-1.84-.88-.31-.91-.66-1.85-1.03-2.73-.29-.7.03-1.51.72-1.83Z"/><path class="cls-8" d="m465.82,217.22c-.24,1.19-.14,2.29.36,3.09.26.42.64.83,1.07,1.2.43.37.9.7,1.41.97,1.01.55,2.1.87,3.28.97,1.2.13,2.61.06,4.09.67.73.3,1.42.83,1.91,1.46.49.63.83,1.33,1.03,2.04.42,1.45.3,2.87.15,4.16-.16,1.28-.3,2.54-.33,3.8-.02,1.26.06,2.52.3,3.74.24,1.22.64,2.38,1.22,3.42.58,1.02,1.33,1.92,2.17,2.59.83.67,1.77,1.1,2.61,1.27.84.17,1.57.09,2.37-.16.79-.25,1.59-.71,2.29-1.31.35-.3.69-.63.98-.99.31-.38.59-.8.85-1.26,1.06-1.82,1.6-4.26,1.49-6.71-.05-1.22-.27-2.44-.65-3.62-.37-1.18-.89-2.3-1.56-3.33-.67-1.03-1.48-1.96-2.4-2.74-.47-.39-.94-.73-1.49-1.13-.53-.4-1.12-.85-1.59-1.53-.23-.34-.43-.74-.54-1.17-.11-.43-.12-.87-.09-1.26.07-.8.25-1.41.4-2.03.3-1.25.63-2.49.97-3.73.34-1.24.67-2.44.72-3.6.04-1.17-.25-2.23-.94-3.11-.67-.89-1.64-1.6-2.68-2.16-1.05-.56-2.16-.94-3.27-1.17-1.12-.21-2.23-.26-3.28-.13-.53.06-1.04.17-1.54.31-.49.14-1.01.33-1.37.52-.81.43-1.65,1.11-2.45,1.91-.81.79-1.59,1.68-2.34,2.62-.74.95-1.41,1.91-1.95,2.99-.54,1.07-.93,2.21-1.17,3.4Zm-2-.27c.21-2.71.95-5.47,2.24-7.94.31-.62.66-1.22,1.05-1.8.38-.59.8-1.16,1.28-1.7.94-1.08,2.08-2.1,3.58-2.82,2.99-1.33,6.19-1.08,8.86.01,1.34.55,2.57,1.27,3.65,2.14.56.42,1.08.88,1.57,1.38.49.51.96,1.05,1.34,1.68.38.62.69,1.31.87,2.03.18.72.24,1.45.21,2.15-.04,1.41-.34,2.72-.6,3.98-.26,1.26-.53,2.51-.84,3.76-.14.63-.33,1.25-.38,1.74-.04.5.01.83.26,1.24.48.81,1.63,1.52,2.61,2.5.97.95,1.81,2.02,2.53,3.15,1.46,2.26,2.4,4.79,3.05,7.42.32,1.32.57,2.67.65,4.09.09,1.42,0,2.9-.41,4.39-.2.74-.49,1.48-.87,2.18-.4.72-.89,1.39-1.46,1.99-1.14,1.18-2.59,2.12-4.28,2.57-.84.22-1.74.32-2.63.25-.9-.06-1.79-.3-2.57-.65-1.58-.72-2.76-1.89-3.62-3.13-.84-1.28-1.41-2.62-1.76-3.99-.36-1.36-.54-2.71-.63-4.05-.08-1.33-.11-2.64-.1-3.95-.01-1.3,0-2.61,0-3.89,0-1.26-.04-2.47-.37-3.49-.17-.51-.4-.99-.71-1.37-.31-.38-.67-.65-1.13-.84-.91-.38-2.15-.4-3.49-.51-1.39-.11-2.81-.54-4.05-1.22-.63-.34-1.21-.76-1.75-1.22-.53-.47-1.05-1.01-1.46-1.68-.42-.68-.65-1.5-.7-2.24-.06-.75-.01-1.47.04-2.15Z"/><path class="cls-5" d="m345.53,439.7c.46,5.71-1.3,11.57-4.81,16.09-3.58,4.61-8.76,7.7-12.73,11.98-3.64,3.92-6.17,9.04-6.84,14.3-2.17-3.38-4.33-6.73-4.76-10.66-.23-2.12.08-4.26.22-6.39.34-5.27-.38-10.66-2.53-15.49-2.15-4.83-5.23-8.06-9.91-10.52,3.6,4.45,5.47,10.27,5.13,15.99-.35,5.83-2.87,11.31-3.73,17.08-1.21,8.17,1.35,17.17,7.8,22.34,1.64,1.31,3.48,2.36,5.08,3.7,2.48,2.08,4.36,4.87,5.35,7.95-.01.04-.02.07-.03.11.02,0,.04-.02.06-.03,0,0,0,0,0,0,0,0,0,0,0,0,6.32-3.16,9.63-7.66,10.84-14.63,1.06-6.09-.31-12.76,2.62-18.21,1.01-1.88,2.47-3.47,3.79-5.14,3.26-4.15,5.72-9.01,6.68-14.2.95-5.2.25-9.61-2.22-14.28Z"/><path class="cls-5" d="m422.99,479.45c.53-2.49,2-4.7,3.8-6.51,2.49-2.51,5.7-4.38,9.19-4.93,3.49-.55,7.26.31,9.95,2.61,1.96,1.68,3.25,4,4.43,6.3.84,1.64,1.64,3.33,1.97,5.14.28,1.51.21,3.09-.2,4.58-.68,2.47-2.26,4.63-4.17,6.34-3,2.7-7.09,4.46-11.07,3.78-2.03-.34-3.93-1.3-5.53-2.58-.82-.65-1.57-1.4-2.09-2.31-.63-1.11-.86-2.41-.94-3.69-.15-2.24.12-4.54,1.06-6.57.94-2.04,2.59-3.79,4.68-4.6,2.09-.81,4.62-.58,6.38.82,1.76,1.39,2.56,3.97,1.67,6.03-.89,2.06-3.53,3.24-5.58,2.34-.69-.3-1.32-.82-2.08-.83-1.13-.02-2,1.22-1.88,2.35.12,1.13.97,2.06,1.94,2.64,2.02,1.19,4.67,1.11,6.76.03,2.09-1.08,3.64-3.04,4.51-5.23.8-2.04,1.04-4.32.53-6.46-1.12-4.65-6.19-7.83-10.85-7.05-3.44.58-6.1,3.09-7.36,6.27-.55,1.4-.9,2.87-1.18,4.35-.21,1.09-.36,2.6-1.55,3.12-2.77,1.22-2.67-4.62-2.38-5.95Z"/><path class="cls-8" d="m223.68,520.87c1.8-.12,3.18-1.68,3.28-3.49.38-6.35-.37-12.8-2.69-18.71-2.53-6.45-7.02-12.23-13-15.74-5.98-3.51-13.47-4.59-20.02-2.31-6.02,2.1-10.83,6.78-14.5,12-3.81,5.43-6.6,11.57-8.2,18-1.04,4.2,4.67,6.58,6.91,2.89.02-.04.04-.07.06-.11.96-1.59,1.81-3.23,2.6-4.91,1.54-3.27,3.29-6.44,5.24-9.49,2.23-3.49,4.81-6.9,8.35-9.05,3.72-2.26,8.38-2.92,12.59-1.79,4.21,1.13,7.9,4.03,10,7.85,2.87,5.24,2.63,11.54,3.71,17.41.44,2.39,1.19,4.88,3,6.49.81.72,1.74,1.01,2.66.94Z"/><path class="cls-5" d="m210.02,520.64c-.82-.15-1.56-.63-2.06-1.39-2.27-3.47-3.85-7.27-4.7-11.3-.97-4.58-.73-8.57.71-11.85,1.72-3.92,5.38-7.05,9.78-8.37,4.01-1.2,8.57-.93,12.85.75,3.48,1.37,6.74,3.63,9.67,6.7,1.08,1.13,1.18,2.86.24,4.02h0s0,0,0,0h0c-.52.64-1.24,1.02-2.1,1.1-1.8.17-3.43-.7-4.64-1.47-.93-.59-1.82-1.25-2.69-1.89-2.05-1.51-3.98-2.93-6.27-3.51-2.31-.58-4.88-.18-6.9,1.08-2.01,1.26-3.51,3.4-3.99,5.73-.49,2.38,0,4.88.55,7.01.53,2.07,1.21,4.12,2,6.1.47,1.18.84,2.24,1.13,3.25l.02.08c.43,1.52-.28,3.05-1.73,3.71-.62.28-1.27.36-1.88.25Zm12.15-31.63c-2.72-.49-5.44-.37-7.92.38-3.92,1.17-7.17,3.94-8.69,7.41-1.29,2.94-1.5,6.58-.6,10.8.81,3.82,2.31,7.43,4.45,10.71.49.75,1.26.74,1.78.51.53-.24,1.02-.81.78-1.67l.81-.31-.83.24c-.27-.95-.62-1.96-1.07-3.08-.82-2.05-1.52-4.18-2.07-6.31-.6-2.33-1.14-5.07-.57-7.79.58-2.78,2.36-5.34,4.76-6.85,2.41-1.51,5.49-1.99,8.24-1.29,2.62.66,4.78,2.26,6.87,3.8.84.62,1.72,1.26,2.59,1.82.98.63,2.27,1.33,3.55,1.21.39-.04.7-.19.92-.47h0c.39-.48.33-1.25-.14-1.74-2.76-2.89-5.81-5.01-9.05-6.29-1.25-.49-2.52-.85-3.79-1.08Z"/><path class="cls-8" d="m493.41,95.94c1.43-.1,2.52-1.34,2.61-2.77.3-5.04-.3-10.16-2.14-14.86-2.01-5.12-5.57-9.71-10.32-12.5-4.75-2.79-10.7-3.64-15.9-1.83-4.78,1.67-8.6,5.39-11.52,9.53-3.03,4.31-5.24,9.19-6.51,14.3-.83,3.34,3.71,5.23,5.49,2.29.02-.03.03-.06.05-.08.76-1.26,1.44-2.57,2.06-3.9,1.22-2.6,2.62-5.12,4.16-7.54,1.77-2.77,3.82-5.48,6.63-7.19,2.96-1.79,6.66-2.32,10-1.42,3.34.9,6.28,3.2,7.94,6.24,2.28,4.16,2.09,9.17,2.95,13.83.35,1.9.94,3.87,2.38,5.16.64.57,1.38.8,2.11.75Z"/><path class="cls-5" d="m482.56,95.76c-.65-.12-1.24-.5-1.64-1.1-1.8-2.76-3.05-5.78-3.73-8.98-.77-3.64-.58-6.81.57-9.41,1.37-3.12,4.27-5.6,7.77-6.64,3.18-.95,6.81-.74,10.2.6,2.77,1.09,5.35,2.88,7.68,5.32.86.9.94,2.27.19,3.19h0s0,0,0,0h0c-.41.51-.99.81-1.67.88-1.43.13-2.72-.55-3.69-1.17-.73-.47-1.45-.99-2.13-1.5-1.62-1.2-3.16-2.33-4.98-2.79-1.83-.46-3.88-.14-5.48.86-1.6,1-2.78,2.7-3.17,4.55-.39,1.89,0,3.87.44,5.57.42,1.64.96,3.27,1.59,4.85.37.93.67,1.78.9,2.58l.02.06c.34,1.21-.22,2.42-1.37,2.94-.49.22-1.01.28-1.49.2Zm9.65-25.12c-2.16-.39-4.32-.29-6.29.3-3.11.93-5.69,3.13-6.9,5.88-1.03,2.34-1.19,5.22-.48,8.57.64,3.03,1.83,5.9,3.54,8.51.39.6,1,.59,1.41.41.42-.19.81-.64.62-1.32l.64-.24-.66.19c-.22-.75-.49-1.55-.85-2.45-.65-1.63-1.21-3.32-1.64-5.01-.48-1.85-.9-4.03-.46-6.19.46-2.21,1.87-4.24,3.78-5.44,1.91-1.2,4.36-1.58,6.54-1.03,2.08.53,3.8,1.79,5.45,3.02.67.49,1.36,1,2.06,1.45.78.5,1.8,1.06,2.82.96.31-.03.55-.15.73-.37h0c.31-.38.26-.99-.11-1.38-2.19-2.3-4.61-3.98-7.19-4.99-.99-.39-2-.68-3.01-.86Z"/><path class="cls-2" d="m302.21,522.27c1.78-3.59,3.57-7.17,5.35-10.76,2.05-4.13,4.16-8.73,2.99-13.19-.21-.8-.54-1.6-1.13-2.18-.43-.42-.97-.71-1.51-.97-5.42-2.56-11.8-2.28-17.57-.71-1.72.47-3.48,1.09-4.7,2.38-1.03,1.09-1.57,2.57-1.8,4.06-.48,3.11.28,6.27,1.21,9.28,1.34,4.33,3.06,8.55,5.12,12.58-2.48,3.41-4.44,7.3-5.96,11.23-.39,1.02-.76,2.12-.49,3.18.23.94.92,1.69,1.66,2.31,2.81,2.35,6.55,3.27,10.18,3.77,3.11.42,6.32.57,9.33-.32,1.29-.39,2.57-1,3.41-2.05,1.1-1.39,1.25-3.34.81-5.06-.43-1.71-1.37-3.25-2.3-4.76-1.67-2.7-2.94-6.08-4.6-8.79Z"/><path class="cls-11" d="m427.31,548.1c-.63,0-1.27-.03-1.91-.09-6.79-.65-13.25-4.83-16.87-10.89-1.69-2.82-2.69-5.9-2.9-8.89-.38-5.32,1.77-11.14,5.89-15.95,2.95-3.45,6.49-5.96,10.21-7.26,3.13-1.09,6.51-1.39,9.79-.85,3.14.52,5.79,1.77,7.66,3.62,1.61,1.6,2.81,3.75,3.77,6.77,2.07,6.53,1.83,13.04-.68,18.32-2.86,6.03-8.85,10.08-14.9,10.08-.02,0-.04,0-.06,0-2.59-.01-5.39-.74-8.32-2.15-2.92-1.42-6.81-3.97-8.77-8.11-1.41-2.98-1.71-6.6-.85-10.19.74-3.05,2.3-6.09,4.64-9.05,1.62-2.04,3.24-3.58,4.97-4.71,3.87-2.52,8.82-3.23,13.24-1.89,2.21.67,4.04,1.79,5.28,3.24,1.36,1.59,2.07,3.59,2.62,5.51.66,2.28,1.29,4.99.98,7.76-.3,2.65-1.45,5.35-3.52,8.26-1.79,2.52-3.65,4.31-5.67,5.48-4.92,2.84-11.54,2.06-15.75-1.85-4.09-3.8-5.49-10.34-3.32-15.57,2.13-5.15,7.58-8.83,13.23-8.95,2.02-.04,3.9.35,5.45,1.13,3.47,1.75,5.72,5.73,5.61,9.91-.1,3.72-2.05,7.54-5.21,10.21-1.39,1.18-2.75,1.93-4.13,2.28-2.41.61-5.16.01-7.34-1.6-1.97-1.46-3.39-3.68-3.89-6.08-.34-1.63-.29-3.4.14-5.27.54-2.37,1.62-4.18,3.11-5.23,2.31-1.63,5.37-1.36,7.78-.95,1.23.21,2.65.51,3.86,1.28,2.09,1.34,3.2,4.03,2.69,6.54-.48,2.39-2.34,4.45-4.75,5.25-2.51.84-5.4.14-7.03-1.7-1.8-2.03-1.82-5.32-.03-7.18.86-.89,2.1-1.47,3.5-1.65,1.51-.18,2.9.18,3.83,1,.86.76,1.28,1.97,1.12,3.23-.16,1.26-.86,2.33-1.88,2.85-.98.5-2.13.5-2.99-.01-1.03-.61-1.49-1.9-1.07-2.94.24-.58.77-1.03,1.41-1.2.6-.16,1.21-.05,1.66.3.31.24.37.68.13.99-.24.31-.68.37-.99.13-.15-.11-.35-.08-.44-.05-.22.06-.4.2-.47.37-.16.39.07.95.48,1.19.44.26,1.08.25,1.62-.03.61-.31,1.03-.97,1.13-1.77.1-.8-.14-1.54-.66-1.99-.63-.55-1.62-.79-2.72-.65-1.08.13-2.02.57-2.65,1.23-1.28,1.32-1.24,3.78.07,5.26,1.26,1.43,3.54,1.96,5.53,1.3,1.9-.63,3.43-2.32,3.81-4.19.39-1.93-.48-4.06-2.07-5.08-.98-.63-2.18-.88-3.33-1.07-2.14-.37-4.84-.62-6.73.71-1.52,1.07-2.22,2.98-2.55,4.39-.38,1.67-.43,3.24-.13,4.67.43,2.07,1.65,3.97,3.35,5.23,1.84,1.37,4.14,1.88,6.15,1.37,1.17-.3,2.34-.95,3.57-1.99,2.85-2.42,4.61-5.85,4.71-9.18.1-3.64-1.84-7.1-4.83-8.61-1.35-.68-3-1.01-4.79-.98-5.11.1-10.03,3.43-11.96,8.08-1.95,4.7-.69,10.59,2.98,13.99,3.71,3.44,9.76,4.16,14.09,1.67,1.85-1.06,3.56-2.73,5.23-5.08,1.93-2.71,3-5.19,3.26-7.6.28-2.53-.31-5.06-.93-7.21-.51-1.77-1.15-3.6-2.34-4.99-1.06-1.24-2.66-2.21-4.61-2.81-4.03-1.22-8.53-.58-12.06,1.72-1.6,1.04-3.12,2.48-4.64,4.4-2.21,2.79-3.68,5.65-4.37,8.5-.79,3.27-.53,6.56.75,9.25,1.79,3.77,5.4,6.13,8.11,7.44,2.73,1.33,5.33,2,7.71,2.01h.05c5.52,0,10.99-3.72,13.62-9.27,2.35-4.96,2.57-11.09.61-17.28-.89-2.79-1.97-4.76-3.41-6.19-2.1-2.07-4.91-2.9-6.9-3.23-3.04-.5-6.19-.23-9.09.79-3.49,1.22-6.82,3.59-9.61,6.85-3.88,4.53-5.91,9.98-5.56,14.94.2,2.77,1.13,5.63,2.7,8.26,3.39,5.68,9.44,9.59,15.79,10.2,6.57.64,13.24-2.31,16.99-7.5,2.35-3.26,3.69-7.57,3.78-12.15.08-3.97-.71-8.15-2.39-12.79-1.38-3.81-2.93-6.52-4.86-8.53-2.41-2.51-5.58-3.9-8.49-3.73-.38.02-.72-.27-.75-.66-.02-.39.27-.72.66-.75,3.31-.2,6.91,1.36,9.6,4.16,2.07,2.16,3.71,5.03,5.17,9.03,1.75,4.81,2.56,9.16,2.48,13.3-.1,4.93-1.5,9.41-4.05,12.95-3.67,5.08-9.94,8.17-16.36,8.17Z"/><path class="cls-11" d="m492.31,196.1c-.63,0-1.27-.03-1.91-.09-6.79-.65-13.25-4.83-16.87-10.89-1.69-2.82-2.69-5.9-2.9-8.89-.38-5.32,1.77-11.14,5.89-15.95,2.95-3.45,6.49-5.96,10.21-7.26,3.13-1.09,6.51-1.39,9.79-.85,3.14.52,5.79,1.77,7.66,3.62,1.61,1.6,2.81,3.75,3.77,6.77,2.07,6.53,1.83,13.04-.68,18.32-2.86,6.03-8.85,10.08-14.9,10.08-.02,0-.04,0-.06,0-2.59-.01-5.39-.74-8.32-2.15-2.92-1.42-6.81-3.97-8.77-8.11-1.41-2.98-1.71-6.6-.85-10.19.74-3.05,2.3-6.09,4.64-9.05,1.62-2.04,3.24-3.58,4.97-4.71,3.87-2.52,8.82-3.23,13.24-1.89,2.21.67,4.04,1.79,5.28,3.24,1.36,1.59,2.07,3.59,2.62,5.51.66,2.28,1.29,4.99.98,7.76-.3,2.65-1.45,5.35-3.52,8.26-1.79,2.52-3.65,4.31-5.67,5.48-4.92,2.84-11.54,2.06-15.75-1.85-4.09-3.8-5.49-10.34-3.32-15.57,2.13-5.15,7.58-8.83,13.23-8.95,2.02-.04,3.9.35,5.45,1.13,3.47,1.75,5.72,5.73,5.61,9.91-.1,3.72-2.05,7.54-5.21,10.21-1.39,1.18-2.75,1.93-4.13,2.28-2.41.61-5.16.01-7.34-1.6-1.97-1.46-3.39-3.68-3.89-6.08-.34-1.63-.29-3.4.14-5.27.54-2.37,1.62-4.18,3.11-5.23,2.31-1.63,5.37-1.36,7.78-.95,1.23.21,2.65.51,3.86,1.28,2.09,1.34,3.2,4.03,2.69,6.54-.48,2.39-2.34,4.45-4.75,5.25-2.51.84-5.4.14-7.03-1.7-1.8-2.03-1.82-5.32-.03-7.18.86-.89,2.1-1.47,3.5-1.65,1.51-.18,2.9.18,3.83,1,.86.76,1.28,1.97,1.12,3.23-.16,1.26-.86,2.33-1.88,2.85-.98.5-2.13.5-2.99-.01-1.03-.61-1.49-1.9-1.07-2.94.24-.58.77-1.03,1.41-1.2.6-.16,1.21-.05,1.66.3.31.24.37.68.13.99-.24.31-.68.37-.99.13-.15-.11-.35-.08-.44-.05-.22.06-.4.2-.47.37-.16.39.07.95.48,1.19.44.26,1.08.25,1.62-.03.61-.31,1.03-.97,1.13-1.77.1-.8-.14-1.54-.66-1.99-.63-.55-1.62-.79-2.72-.65-1.08.13-2.02.57-2.65,1.23-1.28,1.32-1.24,3.78.07,5.26,1.26,1.43,3.54,1.96,5.53,1.3,1.9-.63,3.43-2.32,3.81-4.19.39-1.93-.48-4.06-2.07-5.08-.98-.63-2.18-.88-3.33-1.07-2.14-.37-4.84-.62-6.73.71-1.52,1.07-2.22,2.98-2.55,4.39-.38,1.67-.43,3.24-.13,4.67.43,2.07,1.65,3.97,3.35,5.23,1.84,1.37,4.14,1.88,6.15,1.37,1.17-.3,2.34-.95,3.57-1.99,2.85-2.42,4.61-5.85,4.71-9.18.1-3.64-1.84-7.1-4.83-8.61-1.35-.68-3-1.01-4.79-.98-5.11.1-10.03,3.43-11.96,8.08-1.95,4.7-.69,10.59,2.98,13.99,3.71,3.44,9.76,4.16,14.09,1.67,1.85-1.06,3.56-2.73,5.23-5.08,1.93-2.71,3-5.19,3.26-7.6.28-2.53-.31-5.06-.93-7.21-.51-1.77-1.15-3.6-2.34-4.99-1.06-1.24-2.66-2.21-4.61-2.81-4.03-1.22-8.53-.58-12.06,1.72-1.6,1.04-3.12,2.48-4.64,4.4-2.21,2.79-3.68,5.65-4.37,8.5-.79,3.27-.53,6.56.75,9.25,1.79,3.77,5.4,6.13,8.11,7.44,2.73,1.33,5.33,2,7.71,2.01h.05c5.52,0,10.99-3.72,13.62-9.27,2.35-4.96,2.57-11.09.61-17.28-.89-2.79-1.97-4.76-3.41-6.19-2.1-2.07-4.91-2.9-6.9-3.23-3.04-.5-6.19-.23-9.09.79-3.49,1.22-6.82,3.59-9.61,6.85-3.88,4.53-5.91,9.98-5.56,14.94.2,2.77,1.13,5.63,2.7,8.26,3.39,5.68,9.44,9.59,15.79,10.2,6.57.64,13.24-2.31,16.99-7.5,2.35-3.26,3.69-7.57,3.78-12.15.08-3.97-.71-8.15-2.39-12.79-1.38-3.81-2.93-6.52-4.86-8.53-2.41-2.51-5.58-3.9-8.49-3.73-.38.02-.72-.27-.75-.66-.02-.39.27-.72.66-.75,3.31-.2,6.91,1.36,9.6,4.16,2.07,2.16,3.71,5.03,5.17,9.03,1.75,4.81,2.56,9.16,2.48,13.3-.1,4.93-1.5,9.41-4.05,12.95-3.67,5.08-9.94,8.17-16.36,8.17Z"/><path class="cls-7" d="m406.8,362.49c-3.59-4.27-10.64-4.47-15.95-6.16-5.72-1.82-11.22-5.84-17.11-4.67-4.95.99-8.7,6.12-8.14,11.14.22,1.98,1.02,3.88,1.06,5.87.14,6.95-8.53,11.3-9.32,18.2-.66,5.69,4.3,10.74,4.28,16.47,0,2.1-.67,4.36.33,6.21.51.94,1.4,1.64,1.82,2.62.53,1.21.27,2.61,0,3.9-.4,1.91-.5,3.68-.65,5.47-1.78-2.6-5.09-4.72-6.57-7.66-3.1-6.2,2.8-13.91.39-20.4-1.75-4.72-7.36-7.18-9.08-11.91-1.18-3.25-.26-6.84-.25-10.3.02-7.3-4.49-14.43-11.1-17.53-5.54.61-9.63,6.36-13.99,9.84-4.69,3.74-11.09,6.09-13.38,11.63-1.93,4.67.26,10.63,4.74,12.95,1.77.92,3.79,1.31,5.47,2.38,5.85,3.74,4.66,13.37,9.96,17.86,4.37,3.71,11.32,2.39,16.07,5.59,1.74,1.18,3.26,2.98,5.35,3.18,1.06.1,2.14-.25,3.19-.06,1.3.23,2.32,1.22,3.24,2.17,1.9,1.94,3.9,3.24,5.83,4.95.12.1.25.15.38.16.23.06.49.02.68-.2,2.44-2.86,1.82-8.08,3.84-11.64,3.43-6.02,13.12-5.4,17.18-11.01,2.95-4.08,1.88-10.11,4.86-14.16,2.05-2.79,5.54-4.01,8.42-5.93,6.08-4.04,9.5-11.75,8.42-18.97Z"/><path class="cls-5" d="m342.85,420.32c-3.22,0-6.01-1.92-8.55-4l-.44-.36c-2.2-1.81-4.48-3.68-7.16-4.13-.71-.12-1.45-.14-2.22-.15-1.26-.03-2.57-.06-3.82-.55-1.87-.72-3.28-2.39-3.69-4.35-.26-1.21-.12-2.44,0-3.54l.6-5.53c.13-1.21.3-2.72,1.16-3.92.73-1.01,1.81-1.62,2.87-2.13,2.99-1.44,5.85-2.18,8.51-2.2h0c7.42-.07,15.55,6.82,18.21,13.04,1.78,4.17,1.93,9,.41,13.27-.36,1.01-.98,2.46-2.2,3.4-.9.7-2.08,1.09-3.41,1.13-.09,0-.17,0-.25,0Zm-12.74-29.32c-2.43.02-5.07.71-7.86,2.05-.88.42-1.76.91-2.29,1.64-.63.88-.77,2.11-.88,3.19l-.6,5.53c-.11,1.02-.23,2.08-.02,3.05.3,1.43,1.38,2.7,2.75,3.23,1,.39,2.12.41,3.3.44.8.02,1.62.04,2.44.17,3.09.51,5.53,2.52,7.89,4.45l.44.36c2.38,1.95,4.98,3.73,7.79,3.65.7-.02,1.71-.18,2.52-.81.9-.7,1.39-1.88,1.69-2.7,1.39-3.91,1.26-8.34-.37-12.15-2.46-5.74-10.1-12.11-16.69-12.11-.03,0-.06,0-.1,0h0Z"/><path class="cls-14" d="m320.27,517.25c-.19,0-.4-.02-.6-.07-1.29-.3-2.49-1.46-2.97-2.41-.61-1.2-.35-2.77.62-3.73.95-.95,2.48-1.22,3.72-.67.52.23.95.58,1.26,1.01.61.84.77,2.06.43,3.42-.23.95-.61,1.61-1.17,2.03h0c-.38.28-.82.43-1.3.43Zm-.57-6.34c-.67,0-1.34.25-1.8.71-.71.71-.91,1.9-.46,2.78.39.77,1.43,1.75,2.42,1.98.47.11.89.04,1.22-.21h0c.4-.3.68-.81.86-1.57.16-.65.34-1.88-.3-2.75-.23-.31-.55-.57-.93-.74-.32-.14-.66-.21-1.01-.21Z"/><path class="cls-15" d="m98.26,7.65c-.32,0-.63-.06-.93-.22-.54-.29-.84-.81-1.1-1.27-.13-.23-.25-.44-.4-.62-.16-.21-.37-.39-.59-.58-.29-.26-.59-.53-.82-.88h0c-.44-.68-.53-1.58-.24-2.59.58-2.04,2.47-4.11,3.87-4.77,2.55-1.19,7.02-.3,8.27,2.29.42.87.33,1.8.19,2.43-.33,1.43-1.28,2.8-2.67,3.85-1.3.98-2.82,1.59-4.12,2.05-.48.17-.97.31-1.45.31Zm-3.15-4.02c.17.26.42.48.68.71.24.21.48.42.69.69.18.23.33.48.46.72.23.4.44.77.78.95.47.25,1.11.08,1.72-.14,1.25-.44,2.69-1.01,3.91-1.93,1.24-.93,2.08-2.14,2.37-3.38.12-.5.19-1.24-.13-1.89-1.03-2.13-5.05-2.9-7.19-1.9-1.21.56-2.93,2.5-3.43,4.25-.23.79-.18,1.44.13,1.92h0Z"/><path class="cls-15" d="m113.38,2.11c-.9,0-1.84-.27-2.73-.79-1.71-1.02-2.9-2.8-3.02-4.54-.08-1.16.33-2.1,1.2-2.7,1.75-1.22,5.01-.81,6.68-.05,1.44.65,2.37,1.63,2.61,2.74.24,1.12-.2,2.39-1.24,3.59-.56.65-1.13,1.1-1.71,1.36-.57.26-1.18.39-1.8.39Zm-1.52-7.99c-.97,0-1.9.18-2.56.63-.64.44-.92,1.09-.85,1.97.1,1.48,1.13,3.01,2.62,3.9,1.26.75,2.64.88,3.77.36h0c.48-.22.95-.6,1.43-1.16.5-.58,1.31-1.72,1.05-2.88-.25-1.16-1.45-1.86-2.15-2.17-.82-.37-2.1-.66-3.32-.66Z"/><path class="cls-15" d="m124.87,3.29c-.66,0-1.35-.19-1.99-.57-1.41-.84-2.95-2.41-3.21-4.04-.14-.89.12-1.74.74-2.44.96-1.08,2.6-1.67,4.17-1.5,1.38.15,2.53.85,3.14,1.94.55.97.66,2.27.3,3.65-.23.91-.74,2.11-1.85,2.67-.39.2-.84.3-1.31.3Zm-.83-7.76c-1.17,0-2.32.47-3.02,1.25-.47.53-.65,1.11-.55,1.77.21,1.36,1.61,2.75,2.82,3.46h0c.67.4,1.68.67,2.52.25.84-.42,1.24-1.4,1.43-2.14.3-1.18.22-2.26-.22-3.05-.49-.86-1.38-1.4-2.51-1.53-.15-.02-.31-.02-.46-.02Z"/><path class="cls-15" d="m109.96,7.09c-.16,0-.34-.02-.52-.07-1.01-.25-1.84-1.14-2.02-2.16-.08-.45-.03-.88.13-1.24.66-1.44,2.51-.9,3.21-.69.24.07.49.16.7.36.13.13.23.29.32.49.23.57.22,1.27-.02,1.9-.29.75-.87,1.28-1.52,1.38-.09.01-.18.02-.27.02Zm-.73-3.61c-.48,0-.78.16-.93.48h0c-.12.27-.11.56-.07.76.13.72.71,1.34,1.41,1.51.17.04.33.05.46.03.44-.07.75-.5.89-.87.17-.45.18-.92.03-1.3-.04-.1-.08-.17-.13-.21-.08-.08-.22-.12-.36-.17-.53-.16-.96-.23-1.3-.23Z"/><path class="cls-15" d="m118.16,4.95c-.08,0-.17,0-.25-.02-.78-.1-1.42-.69-1.58-1.43-.1-.49.02-1.03.33-1.42.46-.59,1.27-.86,2.05-.69.74.16,1.29.68,1.45,1.38.05.19.06.38.03.56-.04.27-.16.54-.35.8-.41.52-1.05.84-1.68.84Zm.08-2.8c-.37,0-.72.15-.93.43h0c-.16.21-.23.5-.18.76.08.39.46.73.89.79.42.06.9-.15,1.18-.51.11-.14.17-.28.19-.4.01-.08,0-.17-.02-.26-.13-.55-.62-.72-.83-.76-.1-.02-.2-.03-.3-.03Z"/><path class="cls-15" d="m115.13,13.64c-.25,0-.51-.04-.78-.13-1.12-.37-1.98-1.35-2.2-2.5-.13-.66-.06-1.38.2-2.22.13-.41.29-.81.44-1.19.1-.25.2-.5.29-.75l.03-.1c.08-.22.16-.46.29-.68h0c.3-.51.8-.89,1.42-1.05.73-.19,1.54-.08,2.18.3.57.34,1.07.83,1.43,1.44.17.29.29.56.35.82.08.33.08.67.07.95-.04,1.04-.26,1.97-.65,2.76-.46.93-1.18,1.67-2.02,2.08-.31.15-.59.24-.87.26-.06,0-.12,0-.18,0Zm.41-7.89c-.17,0-.35.02-.51.06-.28.08-.68.25-.92.67h0c-.09.16-.16.35-.23.54l-.04.1c-.09.26-.2.52-.3.77-.15.39-.3.75-.42,1.13-.22.71-.28,1.3-.18,1.82.16.85.83,1.61,1.66,1.88.23.08.44.1.63.09.17-.02.36-.08.58-.18.68-.34,1.26-.94,1.65-1.71.34-.69.53-1.5.57-2.43,0-.23.01-.49-.05-.73-.04-.18-.13-.37-.26-.59-.29-.49-.68-.89-1.14-1.15-.31-.18-.68-.27-1.05-.27Z"/><path class="cls-15" d="m100.61,15.01c-.45,0-.84-.07-1.18-.22-.54-.23-1.01-.67-1.34-1.23-.42-.74-.52-1.6-.27-2.3.33-.93,1.18-1.48,1.93-1.96.13-.09.26-.17.39-.26.53-.36,1.03-.79,1.52-1.2.29-.25.59-.5.89-.74.67-.53,1.69-1.26,2.9-1.52.87-.19,1.52.18,1.83,1.05.14.4.52.7.92,1.01.16.13.32.25.46.39h0c.6.55.96,1.06,1.14,1.61.26.8.15,1.72-.33,2.74-.14.29-.33.67-.65.96-.3.28-.66.45-.97.59-.45.21-.95.44-1.51.57-.66.15-1.33.14-1.98.13-.46,0-.89-.02-1.32.03-.3.03-.6.09-.92.16-.25.05-.51.1-.76.14-.26.04-.5.06-.73.06Zm5.25-8.67c-.08,0-.16.01-.25.03-.8.18-1.59.6-2.56,1.37-.29.23-.58.47-.86.72-.5.43-1.02.87-1.59,1.25-.13.09-.27.18-.41.27-.7.46-1.36.89-1.6,1.56-.17.48-.1,1.09.21,1.62.24.41.58.73.95.89.38.16.86.2,1.47.11.24-.04.48-.08.72-.13.32-.07.65-.13.99-.17.48-.05.96-.04,1.43-.03.62.01,1.21.02,1.78-.11.47-.11.93-.33,1.35-.52.27-.13.55-.26.76-.45.21-.2.36-.48.46-.71.39-.83.49-1.55.29-2.14-.13-.41-.42-.81-.91-1.26h0c-.13-.12-.28-.23-.42-.35-.45-.36-.96-.76-1.18-1.38-.14-.38-.32-.55-.63-.55Z"/><path class="cls-15" d="m123.31,12.94c-.65,0-1.24-.29-1.62-.51-.88-.51-1.51-1.13-1.9-1.84-.62-1.17-.51-2.46-.31-3.35.09-.4.26-.99.66-1.45h0c.25-.29.54-.49.82-.68.1-.07.2-.14.3-.21.1-.08.19-.19.29-.31.12-.15.26-.32.45-.46.95-.66,2.21-.53,2.88-.39.57.11,1.11.3,1.63.48.38.13.77.26,1.15.37.44.12.88.19,1.36.28.46.08.94.16,1.41.29.45.12.95.3,1.3.72.41.5.44,1.15.42,1.66-.07,1.61-.63,2.98-1.59,3.84-.37.34-.82.61-1.33.83-.55.23-1.13.37-1.73.41-.39.03-.78.01-1.16,0-.53-.02-1.04-.04-1.52.05-.16.03-.31.07-.46.11-.33.09-.67.18-1.05.18Zm-2.54-6.62c-.22.25-.37.6-.49,1.1-.24,1.05-.16,2.04.23,2.78.31.58.84,1.09,1.58,1.52.84.49,1.37.43,2.04.25.17-.05.35-.09.52-.13.58-.11,1.15-.09,1.71-.07.37.02.72.03,1.07,0,.51-.03,1-.15,1.47-.35.42-.18.79-.4,1.09-.68,1.07-.97,1.29-2.46,1.32-3.27.02-.54-.05-.88-.23-1.1-.2-.24-.55-.36-.87-.44-.44-.11-.88-.19-1.34-.27-.47-.08-.95-.17-1.42-.29-.41-.11-.82-.25-1.21-.38-.52-.18-1.02-.35-1.53-.46-.44-.09-1.53-.24-2.25.26-.1.07-.19.18-.29.3-.12.15-.25.31-.43.45-.11.08-.22.15-.33.23-.25.17-.49.33-.66.54h0Z"/><path class="cls-15" d="m109.25,23.86c-.22,0-.44-.03-.66-.08-.71-.18-1.37-.66-1.85-1.34-.14-.2-.27-.42-.39-.64-.2-.36-.39-.69-.66-.94-.14-.13-.31-.24-.5-.37-.47-.31-.99-.67-1.1-1.33-.07-.44.09-.85.21-1.14.26-.65.55-1.39,1.11-1.95.57-.58,1.33-.88,1.99-1.14h0l.72-.29c.49-.19.98-.39,1.47-.58.1-.04.19-.08.28-.12.42-.19.86-.38,1.46-.28,1.27.21,2.49,1.11,3.11,2.29.69,1.32.64,2.99-.11,4.27-.29.49-.63.84-1.03,1.06-.21.12-.43.19-.64.26-.22.07-.43.14-.59.25-.23.16-.41.43-.59.71-.17.26-.34.53-.59.76-.43.4-1.02.62-1.63.62Zm-1.55-8.18c-.62.25-1.26.5-1.71.96-.44.45-.69,1.07-.93,1.68-.11.28-.19.51-.16.71.05.31.38.53.75.78.2.13.4.27.59.44.37.33.6.74.82,1.14.11.2.22.39.35.58.37.52.86.88,1.38,1.02.55.14,1.15,0,1.53-.34.17-.16.31-.38.46-.61.22-.34.45-.69.82-.94.26-.17.53-.26.8-.35.18-.06.36-.12.51-.2.26-.14.51-.4.72-.76.62-1.04.65-2.4.09-3.48-.5-.96-1.49-1.69-2.52-1.86-.36-.06-.63.06-1,.22-.1.04-.2.09-.3.13-.49.2-.98.39-1.47.59l-.72.29Z"/><path class="cls-1" d="m379.62,418.31c.58,1.39,2.32,2.29,3.7,1.69.52-.22.94-.61,1.31-1.04.9-1.02,1.55-2.25,1.87-3.57.16-.66.24-1.4-.1-2-.26-.47-.74-.77-1.24-.96-3.4-1.29-6.95,2.53-5.56,5.88Z"/><path class="cls-1" d="m388.94,415.46c.56,1.01,1.96,1.38,3.04.96,1.08-.43,1.82-1.5,2.04-2.64.58-2.88-2.03-4.91-4.74-4.21-.87.23-1.77.7-1.81,1.7-.03.64.55,1.15.77,1.7.32.8.28,1.73.7,2.49Z"/><path class="cls-1" d="m382.63,409.55c.14.26.32.51.56.69.52.39,1.25.36,1.88.2.35-.09.7-.22.99-.44.74-.57.94-1.6.92-2.54,0-.21-.02-.43-.08-.63-.36-1.3-2.38-1.72-3.45-1.07-1.25.76-1.48,2.61-.83,3.79Z"/><path class="cls-1" d="m393.6,409.47c.47.67,1.4,1,2.16.72.49-.18.89-.6,1.09-1.09.2-.49.21-1.04.08-1.55-.18-.69-.63-1.32-1.28-1.62-2.23-1.02-3.09,2.07-2.06,3.54Z"/><path class="cls-1" d="m386.6,419.19c-.17.8.29,1.67,1.02,2.02s1.67.18,2.27-.37c.65-.6.88-1.61.55-2.42-.35-.86-1.61-1.74-2.56-1.27-.54.27-1.16,1.48-1.28,2.04Z"/><path class="cls-9" d="m517.69,371.79c-.82-1.09-1.67-2.14-2.54-3.18-.44-.53-.7-1.06-.8-1.79-.39-2.84-1.44-5.38-3.24-7.56-2.74-3.32-5.92-5.62-9.52-6.78-3.02-.97-6.06-1.72-9.09-2.58-1-.29-1.95-.71-2.83-1.56-1.44-1.39-3.1-2.15-4.81-2.61-1.62-.43-3.16-.18-4.7.04-1.48.21-2.96.4-4.46.48-1.46.07-2.91-.37-4.25-1.43-1.06-.84-2.2-1.39-3.37-1.77-1.08-.36-1.65-.05-1.95,1.14-.18.72-.31,1.48-.31,2.25,0,2.6-.52,4.96-1.3,7.24-.41,1.2-.79,2.44-.99,3.73-.32,2.08-.12,4.17,1.21,6.1.16.23.24.53.35.8.68,1.73,1.35,3.47,2.03,5.2.53,1.34,1.19,2.64,1.58,4.01.63,2.19,0,4.1-.63,5.89-.72,2.03-1.22,4.15-1.72,6.3-.46,2,.07,3.76,1.33,5.35.61.77,1.33,1.4,2.02,2.07,1.15,1.11,2.34,2.16,3.47,3.3,1.07,1.07,2.15.85,2.48-.59.06-.27.11-.54.13-.83.19-2.09.38-4.18.55-6.28.07-.86.18-1.67.67-2.29,1.38-1.77,1.48-3.98.57-6.38-.49-1.3-.8-2.58-.97-3.92-.2-1.61-.72-3.12-1.5-4.56-.72-1.34-1.45-2.67-2.11-4.03-.98-2.02-1.94-4.09-2.38-6.3-.37-1.86-.89-3.59-1.8-5.25-.25-.47-.32-1.14-.3-1.69.01-.66.42-.92.94-.6.6.37,1.22.82,1.72,1.38,1.06,1.2,1.64,2.71,1.95,4.32.12.62.24,1.24.39,1.86.7,2.84,2.1,5.38,3.42,7.91,1.13,2.18,2.03,4.36,2.38,6.79.09.65.31,1.32.57,1.93,1.11,2.66,2.68,4.81,4.88,6.34,1.21.85,2.04,2.1,2.54,3.7.77,2.47,1.65,4.91,2.5,7.35.51,1.45,1.11,2.87,2.07,4.02,1.06,1.27,2.28,1,2.62-.55.13-.57.14-1.19.23-1.78.24-1.58.58-3.12.73-4.73.19-2,.01-3.98-.93-5.98-1.1-2.32-2.5-4.37-3.96-6.39-1.34-1.86-2.57-3.86-3.21-6.12-.49-1.74-1.24-3.33-1.96-4.96-.98-2.22-2.35-4.07-4.08-5.54-.33-.28-.65-.58-.99-.86-1.32-1.13-2.37-2.54-3.21-4.19-.52-1.01-1.08-2-1.63-2.99-.32-.57-.5-1.13-.23-1.86.37.27.7.44.97.71.99,1,1.97,2.02,2.94,3.05,2.03,2.15,4.06,4.3,6.06,6.48.52.56,1.02,1.18,1.41,1.86.6,1.06,1.14,2.17,1.61,3.3.93,2.23,2.2,4.18,3.69,5.95.31.37.68.69,1.06.92,1.04.63,2.11,1.17,3.15,1.8.81.49,1.62,1,2.4,1.56.72.51,1.23,1.21,1.49,2.2.26.98.62,1.94.96,2.9.9,2.56,2.57,3.91,4.68,4.49.39.11.88-.12,1.19-.38.32-.28.58-.74.7-1.22.32-1.25.6-2.52.81-3.82.16-1.04.03-2.11-.42-3.18-.88-2.11-2.08-3.96-3.52-5.59-4.73-5.36-10.02-9.64-15.71-13.17-.79-.49-1.69-.83-2.29-1.78-1.33-2.12-2.96-3.86-4.71-5.45-.94-.85-1.88-1.7-2.82-2.55,0-.08.02-.17.03-.25.43-.04.86-.15,1.3-.09,1.69.22,3.29.88,4.84,2.03,2.67,1.98,5.22,4.16,7.58,6.7,1.08,1.17,2.26,2.05,3.62,2.34,1.24.27,2.49.44,3.72.48.66.02,1.24.21,1.81.64,1.13.86,2.15,1.89,2.97,3.17,1.53,2.39,3.08,4.77,4.57,7.2,1.65,2.69,3.8,4.16,6.35,4.68,1.51.3,2.8-.77,3.17-2.44.35-1.61-.27-2.93-1.21-4.17Z"/><path class="cls-13" d="m476.37,281c-.16,1.33-.26,2.44-.44,3.54-.09.52-.27,1.04-.52,1.51-.5.92-1.07,1.81-1.61,2.71-.14.22-.3.43-.51.72-1.72-2.37-3.39-4.67-5.17-7.11-.36.64-.66,1.18-.96,1.72-.32.6-.63,1.2-.94,1.8-.3.57-.6,1.13-.93,1.77-1-.44-1.96-.85-2.91-1.27-1.08-.48-2.31-.8-3.19-1.52-.91-.75-1.5-1.91-2.22-2.89-.18-.24-.33-.5-.56-.85,19.07-5.05,38.04-10.07,57.03-15.1.08.23.13.32.13.41.22,2.84.42,5.68.65,8.52.04.53-.09.91-.53,1.22-.44.31-.84.68-1.33,1.09-1.97-1.42-3.91-2.82-5.99-4.32-.72,2.29-1.2,4.56-1.9,6.83-.83-.21-1.56-.48-2.19-1.03-1.13-.98-2.27-1.94-3.41-2.9-.28-.24-.57-.46-.92-.74-.83,2.58-1.62,5.06-2.46,7.66-3.16-1.79-6.21-3.57-9.21-5.7-.64,3.13-1.25,6.11-1.89,9.22-2.7-1.78-5.29-3.48-8.03-5.29Z"/><path class="cls-6" d="m63.31,23.1c-.63,0-1.27-.03-1.91-.09-6.79-.65-13.25-4.83-16.87-10.89-1.69-2.82-2.69-5.9-2.9-8.89-.38-5.32,1.77-11.14,5.89-15.95,2.95-3.45,6.49-5.96,10.21-7.26,3.13-1.09,6.51-1.39,9.79-.85,3.14.52,5.79,1.77,7.66,3.62,1.61,1.6,2.81,3.75,3.77,6.77,2.07,6.53,1.83,13.04-.68,18.32-2.86,6.03-8.85,10.08-14.9,10.08-.02,0-.04,0-.06,0-2.59-.01-5.39-.74-8.32-2.15-2.92-1.42-6.81-3.97-8.77-8.11-1.41-2.98-1.71-6.6-.85-10.19.74-3.05,2.3-6.09,4.64-9.05,1.62-2.04,3.24-3.58,4.97-4.71,3.87-2.52,8.82-3.23,13.24-1.89,2.21.67,4.04,1.79,5.28,3.24,1.36,1.59,2.07,3.59,2.62,5.51.66,2.28,1.29,4.99.98,7.76-.3,2.65-1.45,5.35-3.52,8.26-1.79,2.52-3.65,4.31-5.67,5.48-4.92,2.84-11.54,2.06-15.75-1.85-4.09-3.8-5.49-10.34-3.32-15.57,2.13-5.15,7.58-8.83,13.23-8.95,2.02-.04,3.9.35,5.45,1.13,3.47,1.75,5.72,5.73,5.61,9.91-.1,3.72-2.05,7.54-5.21,10.21-1.39,1.18-2.75,1.93-4.13,2.28-2.41.61-5.16.01-7.34-1.6-1.97-1.46-3.39-3.68-3.89-6.08-.34-1.63-.29-3.4.14-5.27.54-2.37,1.62-4.18,3.11-5.23,2.31-1.63,5.37-1.36,7.78-.95,1.23.21,2.65.51,3.86,1.28,2.09,1.34,3.2,4.03,2.69,6.54-.48,2.39-2.34,4.45-4.75,5.25-2.51.84-5.4.14-7.03-1.7-1.8-2.03-1.82-5.32-.03-7.18.86-.89,2.1-1.47,3.5-1.65,1.51-.18,2.9.18,3.83,1,.86.76,1.28,1.97,1.12,3.23-.16,1.26-.86,2.33-1.88,2.85-.98.5-2.13.5-2.99-.01-1.03-.61-1.49-1.9-1.07-2.94.24-.58.77-1.03,1.41-1.2.6-.16,1.21-.05,1.66.3.31.24.37.68.13.99-.24.31-.68.37-.99.13-.15-.11-.35-.08-.44-.05-.22.06-.4.2-.47.37-.16.39.07.95.48,1.19.44.26,1.08.25,1.62-.03.61-.31,1.03-.97,1.13-1.77.1-.8-.14-1.54-.66-1.99-.63-.55-1.62-.79-2.72-.65-1.08.13-2.02.57-2.65,1.23-1.28,1.32-1.24,3.78.07,5.26,1.26,1.43,3.54,1.96,5.53,1.3,1.9-.63,3.43-2.32,3.81-4.19.39-1.93-.48-4.06-2.07-5.08-.98-.63-2.18-.88-3.33-1.07-2.14-.37-4.84-.62-6.73.71-1.52,1.07-2.22,2.98-2.55,4.39-.38,1.67-.43,3.24-.13,4.67.43,2.07,1.65,3.97,3.35,5.23,1.84,1.37,4.14,1.88,6.15,1.37,1.17-.3,2.34-.95,3.57-1.99,2.85-2.42,4.61-5.85,4.71-9.18.1-3.64-1.84-7.1-4.83-8.61-1.35-.68-3-1.01-4.79-.98-5.11.1-10.03,3.43-11.96,8.08-1.95,4.7-.69,10.59,2.98,13.99,3.71,3.44,9.76,4.16,14.09,1.67,1.85-1.06,3.56-2.73,5.23-5.08,1.93-2.71,3-5.19,3.26-7.6.28-2.53-.31-5.06-.93-7.21-.51-1.77-1.15-3.6-2.34-4.99-1.06-1.24-2.66-2.21-4.61-2.81-4.03-1.22-8.53-.58-12.06,1.72-1.6,1.04-3.12,2.48-4.64,4.4-2.21,2.79-3.68,5.65-4.37,8.5-.79,3.27-.53,6.56.75,9.25,1.79,3.77,5.4,6.13,8.11,7.44,2.73,1.33,5.33,2,7.71,2.01h.05c5.52,0,10.99-3.72,13.62-9.27,2.35-4.96,2.57-11.09.61-17.28-.89-2.79-1.97-4.76-3.41-6.19-2.1-2.07-4.91-2.9-6.9-3.23-3.04-.5-6.19-.23-9.09.79-3.49,1.22-6.82,3.59-9.61,6.85-3.88,4.53-5.91,9.98-5.56,14.94.2,2.77,1.13,5.63,2.7,8.26,3.39,5.68,9.44,9.59,15.79,10.2,6.57.64,13.24-2.31,16.99-7.5,2.35-3.26,3.69-7.57,3.78-12.15.08-3.97-.71-8.15-2.39-12.79-1.38-3.81-2.93-6.52-4.86-8.53-2.41-2.51-5.58-3.9-8.49-3.73-.38.02-.72-.27-.75-.66-.02-.39.27-.72.66-.75,3.31-.2,6.91,1.36,9.6,4.16,2.07,2.16,3.71,5.03,5.17,9.03,1.75,4.81,2.56,9.16,2.48,13.3-.1,4.93-1.5,9.41-4.05,12.95-3.67,5.08-9.94,8.17-16.36,8.17Z"/><path class="cls-8" d="m1.43,26.03c-3.53,1.3-7.12,3.01-9.32,6.07-.68.95-1.22,2.08-1.09,3.24.17,1.45,1.38,2.59,2.68,3.26,2.88,1.49,6.33,1.29,9.54.83,3.88-.57,7.7-1.48,11.49-2.46,5.16-1.33,10.45-2.87,14.55-6.27,1.68-1.4,3.23-3.5,2.65-5.61-1.28-4.58-9.3-4.07-12.83-3.37-6,1.17-11.91,2.2-17.67,4.33Z"/><path class="cls-6" d="m2.04,12.14c-2.21.82-4.45,1.88-5.83,3.79-.43.59-.77,1.3-.68,2.02.11.91.86,1.62,1.67,2.04,1.8.93,3.96.81,5.97.52,2.43-.35,4.81-.92,7.19-1.54,3.23-.83,6.54-1.8,9.1-3.92,1.05-.87,2.02-2.19,1.65-3.51-.8-2.87-5.81-2.54-8.03-2.11-3.75.73-7.45,1.37-11.05,2.7Z"/><path class="cls-11" d="m2.17,2.18c-1.38.51-2.78,1.17-3.63,2.37-.27.37-.48.81-.42,1.26.07.57.54,1.01,1.04,1.27,1.13.58,2.47.51,3.72.32,1.51-.22,3-.58,4.48-.96,2.01-.52,4.08-1.12,5.68-2.45.66-.55,1.26-1.36,1.03-2.19C13.57.02,10.44.22,9.07.49c-2.34.46-4.65.86-6.89,1.69Z"/><path class="cls-2" d="m254.21,4.27c1.78-3.59,3.57-7.17,5.35-10.76,2.05-4.13,4.16-8.73,2.99-13.19-.21-.8-.54-1.6-1.13-2.18-.43-.42-.97-.71-1.51-.97-5.42-2.56-11.8-2.28-17.57-.71-1.72.47-3.48,1.09-4.7,2.38-1.03,1.09-1.57,2.57-1.8,4.06-.48,3.11.28,6.27,1.21,9.28,1.34,4.33,3.06,8.55,5.12,12.58-2.48,3.41-4.44,7.3-5.96,11.23-.39,1.02-.76,2.12-.49,3.18.23.94.92,1.69,1.66,2.31,2.81,2.35,6.55,3.27,10.18,3.77,3.11.42,6.32.57,9.33-.32,1.29-.39,2.57-1,3.41-2.05,1.1-1.39,1.25-3.34.81-5.06-.43-1.71-1.37-3.25-2.3-4.76-1.67-2.7-2.94-6.08-4.6-8.79Z"/><path class="cls-11" d="m383.31,23.1c-.63,0-1.27-.03-1.91-.09-6.79-.65-13.25-4.83-16.87-10.89-1.69-2.82-2.69-5.9-2.9-8.89-.38-5.32,1.77-11.14,5.89-15.95,2.95-3.45,6.49-5.96,10.21-7.26,3.13-1.09,6.51-1.39,9.79-.85,3.14.52,5.79,1.77,7.66,3.62,1.61,1.6,2.81,3.75,3.77,6.77,2.07,6.53,1.83,13.04-.68,18.32-2.86,6.03-8.85,10.08-14.9,10.08-.02,0-.04,0-.06,0-2.59-.01-5.39-.74-8.32-2.15-2.92-1.42-6.81-3.97-8.77-8.11-1.41-2.98-1.71-6.6-.85-10.19.74-3.05,2.3-6.09,4.64-9.05,1.62-2.04,3.24-3.58,4.97-4.71,3.87-2.52,8.82-3.23,13.24-1.89,2.21.67,4.04,1.79,5.28,3.24,1.36,1.59,2.07,3.59,2.62,5.51.66,2.28,1.29,4.99.98,7.76-.3,2.65-1.45,5.35-3.52,8.26-1.79,2.52-3.65,4.31-5.67,5.48-4.92,2.84-11.54,2.06-15.75-1.85-4.09-3.8-5.49-10.34-3.32-15.57,2.13-5.15,7.58-8.83,13.23-8.95,2.02-.04,3.9.35,5.45,1.13,3.47,1.75,5.72,5.73,5.61,9.91-.1,3.72-2.05,7.54-5.21,10.21-1.39,1.18-2.75,1.93-4.13,2.28-2.41.61-5.16.01-7.34-1.6-1.97-1.46-3.39-3.68-3.89-6.08-.34-1.63-.29-3.4.14-5.27.54-2.37,1.62-4.18,3.11-5.23,2.31-1.63,5.37-1.36,7.78-.95,1.23.21,2.65.51,3.86,1.28,2.09,1.34,3.2,4.03,2.69,6.54-.48,2.39-2.34,4.45-4.75,5.25-2.51.84-5.4.14-7.03-1.7-1.8-2.03-1.82-5.32-.03-7.18.86-.89,2.1-1.47,3.5-1.65,1.51-.18,2.9.18,3.83,1,.86.76,1.28,1.97,1.12,3.23-.16,1.26-.86,2.33-1.88,2.85-.98.5-2.13.5-2.99-.01-1.03-.61-1.49-1.9-1.07-2.94.24-.58.77-1.03,1.41-1.2.6-.16,1.21-.05,1.66.3.31.24.37.68.13.99-.24.31-.68.37-.99.13-.15-.11-.35-.08-.44-.05-.22.06-.4.2-.47.37-.16.39.07.95.48,1.19.44.26,1.08.25,1.62-.03.61-.31,1.03-.97,1.13-1.77.1-.8-.14-1.54-.66-1.99-.63-.55-1.62-.79-2.72-.65-1.08.13-2.02.57-2.65,1.23-1.28,1.32-1.24,3.78.07,5.26,1.26,1.43,3.54,1.96,5.53,1.3,1.9-.63,3.43-2.32,3.81-4.19.39-1.93-.48-4.06-2.07-5.08-.98-.63-2.18-.88-3.33-1.07-2.14-.37-4.84-.62-6.73.71-1.52,1.07-2.22,2.98-2.55,4.39-.38,1.67-.43,3.24-.13,4.67.43,2.07,1.65,3.97,3.35,5.23,1.84,1.37,4.14,1.88,6.15,1.37,1.17-.3,2.34-.95,3.57-1.99,2.85-2.42,4.61-5.85,4.71-9.18.1-3.64-1.84-7.1-4.83-8.61-1.35-.68-3-1.01-4.79-.98-5.11.1-10.03,3.43-11.96,8.08-1.95,4.7-.69,10.59,2.98,13.99,3.71,3.44,9.76,4.16,14.09,1.67,1.85-1.06,3.56-2.73,5.23-5.08,1.93-2.71,3-5.19,3.26-7.6.28-2.53-.31-5.06-.93-7.21-.51-1.77-1.15-3.6-2.34-4.99-1.06-1.24-2.66-2.21-4.61-2.81-4.03-1.22-8.53-.58-12.06,1.72-1.6,1.04-3.12,2.48-4.64,4.4-2.21,2.79-3.68,5.65-4.37,8.5-.79,3.27-.53,6.56.75,9.25,1.79,3.77,5.4,6.13,8.11,7.44,2.73,1.33,5.33,2,7.71,2.01h.05c5.52,0,10.99-3.72,13.62-9.27,2.35-4.96,2.57-11.09.61-17.28-.89-2.79-1.97-4.76-3.41-6.19-2.1-2.07-4.91-2.9-6.9-3.23-3.04-.5-6.19-.23-9.09.79-3.49,1.22-6.82,3.59-9.61,6.85-3.88,4.53-5.91,9.98-5.56,14.94.2,2.77,1.13,5.63,2.7,8.26,3.39,5.68,9.44,9.59,15.79,10.2,6.57.64,13.24-2.31,16.99-7.5,2.35-3.26,3.69-7.57,3.78-12.15.08-3.97-.71-8.15-2.39-12.79-1.38-3.81-2.93-6.52-4.86-8.53-2.41-2.51-5.58-3.9-8.49-3.73-.38.02-.72-.27-.75-.66-.02-.39.27-.72.66-.75,3.31-.2,6.91,1.36,9.6,4.16,2.07,2.16,3.71,5.03,5.17,9.03,1.75,4.81,2.56,9.16,2.48,13.3-.1,4.93-1.5,9.41-4.05,12.95-3.67,5.08-9.94,8.17-16.36,8.17Z"/><path class="cls-14" d="m270.26,4.65c-.32,0-.63-.06-.93-.22-.54-.29-.84-.81-1.1-1.27-.13-.23-.25-.44-.4-.62-.16-.21-.37-.39-.59-.58-.29-.26-.59-.53-.82-.88h0c-.44-.68-.53-1.58-.24-2.59.58-2.04,2.47-4.11,3.87-4.77,2.55-1.19,7.02-.3,8.27,2.29.42.87.33,1.8.19,2.43-.33,1.43-1.28,2.8-2.67,3.85-1.3.98-2.82,1.59-4.12,2.05-.48.17-.97.31-1.45.31Zm-3.15-4.02c.17.26.42.48.68.71.24.21.48.42.69.69.18.23.33.48.46.72.23.4.44.77.78.95.47.25,1.11.08,1.72-.14,1.25-.44,2.69-1.01,3.91-1.93,1.24-.93,2.08-2.14,2.37-3.38.12-.5.19-1.24-.13-1.89-1.03-2.13-5.05-2.9-7.19-1.9-1.21.56-2.93,2.5-3.43,4.25-.23.79-.18,1.44.13,1.92h0Z"/><path class="cls-14" d="m296.87.29c-.66,0-1.35-.19-1.99-.57-1.41-.84-2.95-2.41-3.21-4.04-.14-.89.12-1.74.74-2.44.96-1.08,2.6-1.67,4.17-1.5,1.38.15,2.53.85,3.14,1.94.55.97.66,2.27.3,3.65-.23.91-.74,2.11-1.85,2.67-.39.2-.84.3-1.31.3Zm-.83-7.76c-1.17,0-2.32.47-3.02,1.25-.47.53-.65,1.11-.55,1.77.21,1.36,1.61,2.75,2.82,3.46h0c.67.4,1.68.67,2.52.25.84-.42,1.24-1.4,1.43-2.14.3-1.18.22-2.26-.22-3.05-.49-.86-1.38-1.4-2.51-1.53-.15-.02-.31-.02-.46-.02Z"/><path class="cls-14" d="m281.96,4.09c-.16,0-.34-.02-.52-.07-1.01-.25-1.84-1.14-2.02-2.16-.08-.45-.03-.88.13-1.24.66-1.44,2.51-.9,3.21-.69.24.07.49.16.7.36.13.13.23.29.32.49.23.57.22,1.27-.02,1.9-.29.75-.87,1.28-1.52,1.38-.09.01-.18.02-.27.02Zm-.73-3.61c-.48,0-.78.16-.93.48h0c-.12.27-.11.56-.07.76.13.72.71,1.34,1.41,1.51.17.04.33.05.46.03.44-.07.75-.5.89-.87.17-.45.18-.92.03-1.3-.04-.1-.08-.17-.13-.21-.08-.08-.22-.12-.36-.17-.53-.16-.96-.23-1.3-.23Z"/><path class="cls-14" d="m290.16,1.95c-.08,0-.17,0-.25-.02-.78-.1-1.42-.69-1.58-1.43-.1-.49.02-1.03.33-1.42.46-.59,1.27-.86,2.05-.69.74.16,1.29.68,1.45,1.38.05.19.06.38.03.56-.04.27-.16.54-.35.8-.41.52-1.05.84-1.68.84Zm.08-2.8c-.37,0-.72.15-.93.43h0c-.16.21-.23.5-.18.76.08.39.46.73.89.79.42.06.9-.15,1.18-.51.11-.14.17-.28.19-.4.01-.08,0-.17-.02-.26-.13-.55-.62-.72-.83-.76-.1-.02-.2-.03-.3-.03Z"/><path class="cls-14" d="m287.13,10.64c-.25,0-.51-.04-.78-.13-1.12-.37-1.98-1.35-2.2-2.5-.13-.66-.06-1.38.2-2.22.13-.41.29-.81.44-1.19.1-.25.2-.5.29-.75l.03-.1c.08-.22.16-.46.29-.68h0c.3-.51.8-.89,1.42-1.05.73-.19,1.54-.08,2.18.3.57.34,1.07.83,1.43,1.44.17.29.29.56.35.82.08.33.08.67.07.95-.04,1.04-.26,1.97-.65,2.76-.46.93-1.18,1.67-2.02,2.08-.31.15-.59.24-.87.26-.06,0-.12,0-.18,0Zm.41-7.89c-.17,0-.35.02-.51.06-.28.08-.68.25-.92.67h0c-.09.16-.16.35-.23.54l-.04.1c-.09.26-.2.52-.3.77-.15.39-.3.75-.42,1.13-.22.71-.28,1.3-.18,1.82.16.85.83,1.61,1.66,1.88.23.08.44.1.63.09.17-.02.36-.08.58-.18.68-.34,1.26-.94,1.65-1.71.34-.69.53-1.5.57-2.43,0-.23.01-.49-.05-.73-.04-.18-.13-.37-.26-.59-.29-.49-.68-.89-1.14-1.15-.31-.18-.68-.27-1.05-.27Z"/><path class="cls-14" d="m272.61,12.01c-.45,0-.84-.07-1.18-.22-.54-.23-1.01-.67-1.34-1.23-.42-.74-.52-1.6-.27-2.3.33-.93,1.18-1.48,1.93-1.96.13-.09.26-.17.39-.26.53-.36,1.03-.79,1.52-1.2.29-.25.59-.5.89-.74.67-.53,1.69-1.26,2.9-1.52.87-.19,1.52.18,1.83,1.05.14.4.52.7.92,1.01.16.13.32.25.46.39h0c.6.55.96,1.06,1.14,1.61.26.8.15,1.72-.33,2.74-.14.29-.33.67-.65.96-.3.28-.66.45-.97.59-.45.21-.95.44-1.51.57-.66.15-1.33.14-1.98.13-.46,0-.89-.02-1.32.03-.3.03-.6.09-.92.16-.25.05-.51.1-.76.14-.26.04-.5.06-.73.06Zm5.25-8.67c-.08,0-.16.01-.25.03-.8.18-1.59.6-2.56,1.37-.29.23-.58.47-.86.72-.5.43-1.02.87-1.59,1.25-.13.09-.27.18-.41.27-.7.46-1.36.89-1.6,1.56-.17.48-.1,1.09.21,1.62.24.41.58.73.95.89.38.16.86.2,1.47.11.24-.04.48-.08.72-.13.32-.07.65-.13.99-.17.48-.05.96-.04,1.43-.03.62.01,1.21.02,1.78-.11.47-.11.93-.33,1.35-.52.27-.13.55-.26.76-.45.21-.2.36-.48.46-.71.39-.83.49-1.55.29-2.14-.13-.41-.42-.81-.91-1.26h0c-.13-.12-.28-.23-.42-.35-.45-.36-.96-.76-1.18-1.38-.14-.38-.32-.55-.63-.55Z"/><path class="cls-14" d="m295.31,9.94c-.65,0-1.24-.29-1.62-.51-.88-.51-1.51-1.13-1.9-1.84-.62-1.17-.51-2.46-.31-3.35.09-.4.26-.99.66-1.45h0c.25-.29.54-.49.82-.68.1-.07.2-.14.3-.21.1-.08.19-.19.29-.31.12-.15.26-.32.45-.46.95-.66,2.21-.53,2.88-.39.57.11,1.11.3,1.63.48.38.13.77.26,1.15.37.44.12.88.19,1.36.28.46.08.94.16,1.41.29.45.12.95.3,1.3.72.41.5.44,1.15.42,1.66-.07,1.61-.63,2.98-1.59,3.84-.37.34-.82.61-1.33.83-.55.23-1.13.37-1.73.41-.39.03-.78.01-1.16,0-.53-.02-1.04-.04-1.52.05-.16.03-.31.07-.46.11-.33.09-.67.18-1.05.18Zm-2.54-6.62c-.22.25-.37.6-.49,1.1-.24,1.05-.16,2.04.23,2.78.31.58.84,1.09,1.58,1.52.84.49,1.37.43,2.04.25.17-.05.35-.09.52-.13.58-.11,1.15-.09,1.71-.07.37.02.72.03,1.07,0,.51-.03,1-.15,1.47-.35.42-.18.79-.4,1.09-.68,1.07-.97,1.29-2.46,1.32-3.27.02-.54-.05-.88-.23-1.1-.2-.24-.55-.36-.87-.44-.44-.11-.88-.19-1.34-.27-.47-.08-.95-.17-1.42-.29-.41-.11-.82-.25-1.21-.38-.52-.18-1.02-.35-1.53-.46-.44-.09-1.53-.24-2.25.26-.1.07-.19.18-.29.3-.12.15-.25.31-.43.45-.11.08-.22.15-.33.23-.25.17-.49.33-.66.54h0Z"/><path class="cls-14" d="m281.25,20.86c-.22,0-.44-.03-.66-.08-.71-.18-1.37-.66-1.85-1.34-.14-.2-.27-.42-.39-.64-.2-.36-.39-.69-.66-.94-.14-.13-.31-.24-.5-.37-.47-.31-.99-.67-1.1-1.33-.07-.44.09-.85.21-1.14.26-.65.55-1.39,1.11-1.95.57-.58,1.33-.88,1.99-1.14h0l.72-.29c.49-.19.98-.39,1.47-.58.1-.04.19-.08.28-.12.42-.19.86-.38,1.46-.28,1.27.21,2.49,1.11,3.11,2.29.69,1.32.64,2.99-.11,4.27-.29.49-.63.84-1.03,1.06-.21.12-.43.19-.64.26-.22.07-.43.14-.59.25-.23.16-.41.43-.59.71-.17.26-.34.53-.59.76-.43.4-1.02.62-1.63.62Zm-1.55-8.18c-.62.25-1.26.5-1.71.96-.44.45-.69,1.07-.93,1.68-.11.28-.19.51-.16.71.05.31.38.53.75.78.2.13.4.27.59.44.37.33.6.74.82,1.14.11.2.22.39.35.58.37.52.86.88,1.38,1.02.55.14,1.15,0,1.53-.34.17-.16.31-.38.46-.61.22-.34.45-.69.82-.94.26-.17.53-.26.8-.35.18-.06.36-.12.51-.2.26-.14.51-.4.72-.76.62-1.04.65-2.4.09-3.48-.5-.96-1.49-1.69-2.52-1.86-.36-.06-.63.06-1,.22-.1.04-.2.09-.3.13-.49.2-.98.39-1.47.59l-.72.29Z"/><path class="cls-14" d="m205.52,34.64c.39,2.79-1.75,5.25-4.56,5.41-1.2.07-2.44.34-3.59.6-3.27.75-6.58,1.3-9.91,1.67-1.98.22-3.99.37-5.96.05-1.93-.31-3.76-1.07-5.6-1.73-4.21-1.5-8.59-2.49-13.03-2.95-1.99-.21-4.05-.32-5.86-1.17-1.81-.85-3.34-2.68-3.15-4.67,1.26-1.44,3.09-1.75,5.01-1.83,4.3-.19,8.45,1.42,12.63,2.44,4.61,1.12,9.4,1.54,14.13,1.22-4.91-2.68-10.75-4-15.99-5.97-2.31-.87-4.52-2.02-6.56-3.41-3.21-2.2-6.25-5.56-5.58-9.53.13-.77.52-1.49,1.17-1.91,1.21-.77,2.35-.05,3.34.61,5.61,3.73,11.57,6.91,17.79,9.5,4.38,1.83,9.02,3.44,12.46,6.7-.19-.77-.75-1.69-1.19-2.35-2.74-4.12-7.81-5.83-12.11-8.25-2.58-1.46-4.97-3.25-7.1-5.32-2.12-2.07-4.01-4.47-4.4-7.58-.14-1.12.02-2.25.44-3.3.15-.39.36-.77.68-1.03,1.05-.84,2.58.03,3.57.95,3.82,3.54,6.7,8.05,10.83,11.21,2.77,2.12,6.04,3.6,8.47,6.1,1.99,2.05,3.28,4.66,4.54,7.22.57-.89.31-2.29.18-3.34-.88-7.04-4.73-13.66-3.88-20.82.12-.98.57-1.91,1.34-2.52,1.87-1.46,3.97.02,4.91,1.75,1.79,3.29.93,7.3.88,11.04-.04,2.57.33,5.15,1.09,7.61,1.04,3.36,2.79,6.46,4.03,9.75.46,1.23.8,2.52.98,3.82Z"/><path class="cls-8" d="m321.43,26.03c-3.53,1.3-7.12,3.01-9.32,6.07-.68.95-1.22,2.08-1.09,3.24.17,1.45,1.38,2.59,2.68,3.26,2.88,1.49,6.33,1.29,9.54.83,3.88-.57,7.7-1.48,11.49-2.46,5.16-1.33,10.45-2.87,14.55-6.27,1.68-1.4,3.23-3.5,2.65-5.61-1.28-4.58-9.3-4.07-12.83-3.37-6,1.17-11.91,2.2-17.67,4.33Z"/><path class="cls-6" d="m322.04,12.14c-2.21.82-4.45,1.88-5.83,3.79-.43.59-.77,1.3-.68,2.02.11.91.86,1.62,1.67,2.04,1.8.93,3.96.81,5.97.52,2.43-.35,4.81-.92,7.19-1.54,3.23-.83,6.54-1.8,9.1-3.92,1.05-.87,2.02-2.19,1.65-3.51-.8-2.87-5.81-2.54-8.03-2.11-3.75.73-7.45,1.37-11.05,2.7Z"/><path class="cls-11" d="m322.17,2.18c-1.38.51-2.78,1.17-3.63,2.37-.27.37-.48.81-.42,1.26.07.57.54,1.01,1.04,1.27,1.13.58,2.47.51,3.72.32,1.51-.22,3-.58,4.48-.96,2.01-.52,4.08-1.12,5.68-2.45.66-.55,1.26-1.36,1.03-2.19-.5-1.79-3.63-1.59-5.01-1.32-2.34.46-4.65.86-6.89,1.69Z"/><path class="cls-3" d="m137.21,22.71c-.65-.73-.89-1.42-1.03-2.18-.27-1.51-.65-3.01-.98-4.51-.15-.66-.34-1.32-.45-1.99-.18-1.08.26-1.86,1.42-2.41.64-.31,1.36-.49,2.05-.72.11-.04.25-.03.33-.09,1.22-.9,2.35-.2,3.47.21.32.12.62.43.78.73.63,1.19,1.19,2.41,1.78,3.62.5,1.03.54,1.09-.37,1.85-2.01,1.68-4.05,3.32-6.1,4.96-.25.2-.57.35-.89.54Z"/><path class="cls-12" d="m490.82,308.02c.44-.07.89-.26,1.31-.2,1.11.16,2.21.41,3.32.64.12.03.23.12.35.18,0,.44-.17.78-.44,1.08-1.19,1.37-2.17,2.88-3.04,4.47-.43.78-.95,1.5-1.41,2.26-.2.34-.35.7-.52,1.05-.83.08-1.65.15-2.53.23.19-1.46.12-2.83.79-4.12.65-1.25,1.11-2.61,1.63-3.93.21-.53.35-1.09.53-1.66Z"/><path class="cls-13" d="m432.64,239.75c0-.59-.03-1.02,0-1.44.09-.97.25-1.93.33-2.9.13-1.68.22-3.36.34-5.04.02-.22.12-.48.3-.64,1.41-1.18,2.8-2.38,4.31-3.48,1.24-.91,2.32-.78,3.28.33,1.02,1.17,1.66,2.48,1.69,3.94.02,1.18-.05,2.36.03,3.53.08,1.09-.49,1.89-1.47,2.55-1.88,1.28-4.05,2.13-6.39,2.69-.73.18-1.49.28-2.44.46Z"/><rect class="cls-4" x="-17" y="315" width="354" height="180"/></svg>