<?xml version="1.0" encoding="UTF-8"?>
<svg id="Capa_1" data-name="Capa 1" xmlns="http://www.w3.org/2000/svg" viewBox="0 0 29.47 29.31">
  <defs>
    <style>
      .cls-1 {
        fill: #545ff5;
        stroke-width: 0px;
      }
    </style>
  </defs>
  <path class="cls-1" d="m29.47,9.5c-.02-.06-.04-.12-.06-.19-4.2.35-8.41.7-12.79,1.06,1.66-3.53,3.22-6.87,4.79-10.21-.05-.03-.09-.05-.14-.08-2.35,3.17-4.7,6.33-7.19,9.68-.82-3.42-1.57-6.59-2.33-9.77-.07.01-.13.02-.19.03-.22,3.45-.45,6.91-.67,10.44-3.52-.71-6.9-1.65-10.4-2.15,2.55,2.02,5.11,4.05,7.77,6.15-2.79,2.47-5.52,4.87-8.25,7.28.04.06.07.11.11.17,3.65-1.24,7.31-2.48,11.04-3.75.81,3.79,1.59,7.46,2.38,11.13.07,0,.14,0,.22-.01.88-3.78,1.59-7.59,2.53-11.49,2.79,1.85,5.45,3.61,8.1,5.36.05-.04.09-.09.14-.13-2.23-2.96-4.45-5.92-6.74-8.97.92-.36,8.71-3.38,9.48-3.68.74-.29,1.47-.59,2.21-.88Z"/>
</svg>