<?xml version="1.0" encoding="UTF-8"?><svg id="Capa_1" xmlns="http://www.w3.org/2000/svg" width="145" height="40" viewBox="0 0 145 40"><defs><style>.cls-1{letter-spacing:0em;}.cls-2{fill:#545ff5;stroke-width:0px;}.cls-3{fill:#fff;font-family:BricolageGrotesque-Bold, 'Bricolage Grotesque';font-size:33px;font-weight:700;}.cls-4{fill:#00d3aa;fill-rule:evenodd;stroke:#00d3aa;stroke-linecap:round;stroke-linejoin:round;}.cls-5{letter-spacing:-.05em;}</style></defs><rect class="cls-2" x="-4" y="-1.5" width="152" height="43"/><path class="cls-4" d="m40.92,13.86c-5.13.43-10.26.85-15.61,1.3,2.02-4.31,3.93-8.39,5.85-12.47-.06-.03-.12-.06-.17-.1-2.87,3.87-5.74,7.73-8.77,11.82-1-4.18-1.92-8.05-2.84-11.92-.08.01-.16.03-.24.04-.27,4.21-.54,8.43-.82,12.74-4.29-.87-8.42-2.01-12.69-2.62,3.12,2.47,6.24,4.94,9.48,7.51-3.41,3.01-6.74,5.95-10.06,8.89.05.07.09.14.14.21,4.46-1.51,8.92-3.03,13.47-4.58.99,4.62,1.94,9.1,2.9,13.58.09,0,.18,0,.27-.01,1.07-4.61,1.94-9.27,3.09-14.02,3.41,2.26,6.65,4.4,9.89,6.54.06-.05.11-.11.17-.16-2.72-3.61-5.44-7.23-8.23-10.94,1.13-.44,10.63-4.12,11.57-4.49.9-.35,1.8-.72,2.69-1.08-.03-.08-.05-.15-.08-.23Z"/><text class="cls-3" transform="translate(44.68 29.81)"><tspan class="cls-5" x="0" y="0">Y</tspan><tspan class="cls-1" x="19.31" y="0">s</tspan><tspan x="37.19" y="0">mlu</tspan></text></svg>