<?xml version="1.0" encoding="utf-8"?>
<!-- Generator: Adobe Illustrator 27.8.1, SVG Export Plug-In . SVG Version: 6.00 Build 0)  -->
<svg version="1.1" id="Capa_1" xmlns="http://www.w3.org/2000/svg" xmlns:xlink="http://www.w3.org/1999/xlink" x="0px" y="0px"
	 viewBox="0 0 195 57" style="enable-background:new 0 0 195 57;" xml:space="preserve">
<style type="text/css">
	
		.st0{fill-rule:evenodd;clip-rule:evenodd;fill:#00D3AA;stroke:#00D3AA;stroke-linecap:round;stroke-linejoin:round;stroke-miterlimit:10;}
	.st1{fill:none;}
	.st2{fill:#FFFFFF;}
	.st3{font-family:'BricolageGrotesque-Bold';}
	.st4{font-size:44px;}
	.st5{fill:#F5ECE3;}
	.st6{fill:#545FF5;}
	.st7{fill:#14141C;}
	.st8{fill:#FF6E00;}
	.st9{fill:#00D3AA;}
	.st10{fill:#FFA800;}
	.st11{fill:#FFC1B4;}
	.st12{fill:#4E5FF9;}
	.st13{fill:#358288;}
	.st14{fill:#001B34;}
	.st15{fill:#07B773;}
	.st16{fill-rule:evenodd;clip-rule:evenodd;fill:#F5ECE3;}
	.st17{fill:#F7E7D8;}
	.st18{fill-rule:evenodd;clip-rule:evenodd;fill:#251928;}
	.st19{fill-rule:evenodd;clip-rule:evenodd;fill:#124299;}
	.st20{fill-rule:evenodd;clip-rule:evenodd;fill:#22B29A;}
	.st21{fill-rule:evenodd;clip-rule:evenodd;fill:#FFA4BC;}
	.st22{fill-rule:evenodd;clip-rule:evenodd;fill:#FF5E0F;}
	.st23{fill-rule:evenodd;clip-rule:evenodd;fill:#FFA825;}
	.st24{fill-rule:evenodd;clip-rule:evenodd;fill:#FFA800;}
	.st25{fill:none;stroke:#14141C;stroke-width:9;stroke-miterlimit:10;}
	.st26{clip-path:url(#SVGID_00000007394311392751009180000007509398236752667035_);}
	.st27{clip-path:url(#SVGID_00000078752790107246816540000004541440136168102539_);}
</style>
<path class="st0" d="M55.15,19.55c-7.35,0.61-14.69,1.22-22.35,1.85c2.89-6.17,5.63-12.01,8.37-17.85
	c-0.08-0.05-0.16-0.09-0.25-0.14c-4.11,5.53-8.22,11.07-12.56,16.92c-1.43-5.98-2.75-11.52-4.07-17.07
	c-0.11,0.02-0.23,0.04-0.34,0.06c-0.39,6.04-0.78,12.07-1.18,18.25c-6.15-1.24-12.06-2.88-18.18-3.75
	c4.46,3.53,8.93,7.07,13.57,10.75c-4.88,4.31-9.65,8.52-14.41,12.73c0.06,0.1,0.13,0.2,0.19,0.3c6.38-2.17,12.77-4.34,19.29-6.55
	c1.41,6.62,2.78,13.03,4.15,19.45c0.13-0.01,0.25-0.01,0.38-0.02c1.53-6.6,2.77-13.27,4.42-20.08c4.88,3.23,9.52,6.3,14.16,9.37
	c0.08-0.08,0.16-0.16,0.24-0.24c-3.89-5.17-7.78-10.35-11.79-15.67c1.61-0.63,15.21-5.9,16.57-6.44c1.29-0.51,2.57-1.03,3.86-1.54
	C55.23,19.77,55.19,19.66,55.15,19.55z"/>
<rect x="33.23" y="10.78" class="st1" width="183.53" height="64.45"/>
<text transform="matrix(1 0 0 1 58.9569 42.1487)" class="st2 st3 st4">Ysmlu</text>
</svg>
